M48
METRIC,LZ,000.000
;FILE_FORMAT=3:3
;TYPE=PLATED
;Layer: PTH_Through_Via
;EasyEDA v6.5.23, 2023-05-04 17:13:00
;607db096b8b445a3a5bfbfc94cd9f4cc,a707f60854a14c978b55351e1b3b8125,10
;Gerber Generator version 0.2
;Holesize 1 = 0.305 mm
T01C0.305
%
G05
G90
T01
X076581Y-022606
X067691Y-022606
X063754Y-008763
X063754Y-006223
X016129Y-008636
X018288Y-022733
X027940Y-017145
X027178Y-022733
X072771Y-028575
X023368Y-028702
X028448Y-033782
X076581Y-017272
X065913Y-015875
X069215Y-014732
X017907Y-015748
X021844Y-014351
X017018Y-006096
X074041Y-010541
X025527Y-010414
X071501Y-031242
X072136Y-032639
X022098Y-031369
X022733Y-032512
M30
