M48
METRIC,LZ,000.000
;FILE_FORMAT=3:3
;TYPE=PLATED
;Layer: PTH_Through
;EasyEDA v6.5.23, 2023-05-04 17:13:00
;607db096b8b445a3a5bfbfc94cd9f4cc,a707f60854a14c978b55351e1b3b8125,10
;Gerber Generator version 0.2
;Holesize 1 = 1.000 mm
T01C1.000
;Holesize 2 = 1.101 mm
T02C1.101
;Holesize 3 = 1.200 mm
T03C1.200
;Holesize 4 = 1.499 mm
T04C1.499
;Holesize 5 = 1.778 mm
T05C1.778
;Holesize 6 = 3.000 mm
T06C3.000
%
G05
G90
T01
X013843Y-012033
X013843Y-020733
X062484Y-011652
X062484Y-020352
T02
X041910Y-038989
X044450Y-038989
X046990Y-038989
X049530Y-038989
T03
X054864Y-034163
X054864Y-036703
X054864Y-039243
T04
X090805Y-005588
X090805Y-011938
X090678Y-021209
X090678Y-027559
X050927Y-010668
X044577Y-010668
T05
X019812Y001016
X022352Y001016
X024892Y001016
X014732Y001016
X057658Y001016
X060198Y001016
X062738Y001016
X052578Y001016
X076454Y001016
X078994Y001016
X081534Y001016
X071374Y001016
X038735Y001016
X041275Y001016
X043815Y001016
X033655Y001016
T06
X093980Y-035560
X093980Y020320
X005080Y020320
X005080Y-035560
M30
