G04 Layer: TopSolderMaskLayer*
G04 EasyEDA v6.5.23, 2023-05-04 17:13:00*
G04 607db096b8b445a3a5bfbfc94cd9f4cc,a707f60854a14c978b55351e1b3b8125,10*
G04 Gerber Generator version 0.2*
G04 Scale: 100 percent, Rotated: No, Reflected: No *
G04 Dimensions in millimeters *
G04 leading zeros omitted , absolute positions ,4 integer and 5 decimal *
%FSLAX45Y45*%
%MOMM*%

%AMMACRO1*1,1,$1,$2,$3*1,1,$1,$4,$5*1,1,$1,0-$2,0-$3*1,1,$1,0-$4,0-$5*20,1,$1,$2,$3,$4,$5,0*20,1,$1,$4,$5,0-$2,0-$3,0*20,1,$1,0-$2,0-$3,0-$4,0-$5,0*20,1,$1,0-$4,0-$5,$2,$3,0*4,1,4,$2,$3,$4,$5,0-$2,0-$3,0-$4,0-$5,$2,$3,0*%
%ADD10O,2.3622X4.2672*%
%ADD11MACRO1,0.1016X-0.7425X-0.864X-0.7425X0.864*%
%ADD12MACRO1,0.1016X0.7425X-0.864X0.7425X0.864*%
%ADD13MACRO1,0.1016X0.7425X0.864X0.7425X-0.864*%
%ADD14MACRO1,0.1016X-0.7425X0.864X-0.7425X-0.864*%
%ADD15C,1.9016*%
%ADD16MACRO1,0.1016X-0.85X0.85X0.85X0.85*%
%ADD17C,1.8016*%
%ADD18MACRO1,0.1016X-0.9X-0.7874X-0.9X0.7874*%
%ADD19MACRO1,0.1016X0.8505X-0.6038X-0.8505X-0.6038*%
%ADD20MACRO1,0.1016X0.8505X0.6038X-0.8505X0.6038*%
%ADD21MACRO1,0.1016X0.6038X0.8505X0.6038X-0.8505*%
%ADD22MACRO1,0.1016X-0.6038X0.8505X-0.6038X-0.8505*%
%ADD23MACRO1,0.1016X-0.6038X-0.8505X-0.6038X0.8505*%
%ADD24MACRO1,0.1016X0.6038X-0.8505X0.6038X0.8505*%
%ADD25O,0.7015988X1.9015963999999999*%
%ADD26MACRO1,0.1016X2.7X-1.5005X-2.7X-1.5005*%
%ADD27MACRO1,0.1016X-1.5005X-2.7X-1.5005X2.7*%
%ADD28C,6.1016*%

%LPD*%
D10*
G01*
X1981200Y101600D03*
G01*
X2235200Y101600D03*
G01*
X2489200Y101600D03*
G01*
X1473200Y101600D03*
G01*
X5765800Y101600D03*
G01*
X6019800Y101600D03*
G01*
X6273800Y101600D03*
G01*
X5257800Y101600D03*
G01*
X7645400Y101600D03*
G01*
X7899400Y101600D03*
G01*
X8153400Y101600D03*
G01*
X7137400Y101600D03*
D11*
G01*
X7652250Y-3263900D03*
D12*
G01*
X7333749Y-3263900D03*
D13*
G01*
X2507749Y-1574800D03*
D14*
G01*
X2826250Y-1574800D03*
D11*
G01*
X2229350Y-1574800D03*
D12*
G01*
X1910849Y-1574800D03*
D11*
G01*
X7029950Y-1587500D03*
D12*
G01*
X6711449Y-1587500D03*
D13*
G01*
X7346449Y-1587500D03*
D14*
G01*
X7664950Y-1587500D03*
D13*
G01*
X2393449Y-3251200D03*
D14*
G01*
X2711950Y-3251200D03*
D15*
G01*
X1384300Y-1203299D03*
G01*
X1384300Y-2073300D03*
G01*
X6248400Y-1165199D03*
G01*
X6248400Y-2035200D03*
D16*
G01*
X4191000Y-3898900D03*
D17*
G01*
X4445000Y-3898900D03*
G01*
X4699000Y-3898900D03*
G01*
X4953000Y-3898900D03*
D15*
G01*
X5486400Y-3416300D03*
G01*
X5486400Y-3670300D03*
D18*
G01*
X5486400Y-3924300D03*
D19*
G01*
X3289300Y-1236423D03*
D20*
G01*
X3289300Y-1532176D03*
D19*
G01*
X965200Y-1477723D03*
D20*
G01*
X965200Y-1773476D03*
D21*
G01*
X1299923Y-723900D03*
D22*
G01*
X1595676Y-723900D03*
D23*
G01*
X3284776Y-762000D03*
D24*
G01*
X2989023Y-762000D03*
D23*
G01*
X8021876Y-762000D03*
D24*
G01*
X7726123Y-762000D03*
D21*
G01*
X6075123Y-749300D03*
D22*
G01*
X6370876Y-749300D03*
D19*
G01*
X5880100Y-1439623D03*
D20*
G01*
X5880100Y-1735376D03*
D19*
G01*
X8026400Y-1426923D03*
D20*
G01*
X8026400Y-1722676D03*
D25*
G01*
X2717800Y-2407920D03*
G01*
X2590800Y-2407920D03*
G01*
X2463800Y-2407920D03*
G01*
X2336800Y-2407920D03*
G01*
X2209800Y-2407920D03*
G01*
X2082800Y-2407920D03*
G01*
X1955800Y-2407920D03*
G01*
X1828800Y-2407920D03*
G01*
X2717800Y-3002279D03*
G01*
X2590800Y-3002279D03*
G01*
X2463800Y-3002279D03*
G01*
X2336800Y-3002279D03*
G01*
X2209800Y-3002279D03*
G01*
X2082800Y-3002279D03*
G01*
X1955800Y-3002279D03*
G01*
X1828800Y-3002279D03*
G01*
X7658100Y-2395220D03*
G01*
X7531100Y-2395220D03*
G01*
X7404100Y-2395220D03*
G01*
X7277100Y-2395220D03*
G01*
X7150100Y-2395220D03*
G01*
X7023100Y-2395220D03*
G01*
X6896100Y-2395220D03*
G01*
X6769100Y-2395220D03*
G01*
X7658100Y-2989579D03*
G01*
X7531100Y-2989579D03*
G01*
X7404100Y-2989579D03*
G01*
X7277100Y-2989579D03*
G01*
X7150100Y-2989579D03*
G01*
X7023100Y-2989579D03*
G01*
X6896100Y-2989579D03*
G01*
X6769100Y-2989579D03*
D10*
G01*
X3873500Y101600D03*
G01*
X4127500Y101600D03*
G01*
X4381500Y101600D03*
G01*
X3365500Y101600D03*
D26*
G01*
X9080500Y-558812D03*
G01*
X9080500Y-1193812D03*
G01*
X9067800Y-2120912D03*
G01*
X9067800Y-2755912D03*
D27*
G01*
X5092687Y-1066800D03*
G01*
X4457687Y-1066800D03*
D23*
G01*
X2446576Y-1143000D03*
D24*
G01*
X2150823Y-1143000D03*
D23*
G01*
X7297976Y-1155700D03*
D24*
G01*
X7002223Y-1155700D03*
D28*
G01*
X9398000Y-3556000D03*
G01*
X9398000Y2032000D03*
G01*
X508000Y2032000D03*
G01*
X508000Y-3556000D03*
M02*
