G04 Layer: TopLayer*
G04 EasyEDA v6.5.23, 2023-05-04 17:13:00*
G04 607db096b8b445a3a5bfbfc94cd9f4cc,a707f60854a14c978b55351e1b3b8125,10*
G04 Gerber Generator version 0.2*
G04 Scale: 100 percent, Rotated: No, Reflected: No *
G04 Dimensions in millimeters *
G04 leading zeros omitted , absolute positions ,4 integer and 5 decimal *
%FSLAX45Y45*%
%MOMM*%

%AMMACRO1*21,1,$1,$2,0,0,$3*%
%ADD10C,0.2540*%
%ADD11C,0.5080*%
%ADD12MACRO1,1.728X1.485X90.0000*%
%ADD13MACRO1,1.728X1.485X-90.0000*%
%ADD14MACRO1,1.701X1.2075X0.0000*%
%ADD15R,1.7010X1.2075*%
%ADD16MACRO1,1.701X1.2075X-90.0000*%
%ADD17MACRO1,1.701X1.2075X90.0000*%
%ADD18O,0.5999988X1.7999964*%
%ADD19O,2.159X4.064*%
%ADD20C,1.8000*%
%ADD21R,1.7000X1.7000*%
%ADD22C,1.7000*%
%ADD23R,1.8000X1.5748*%
%ADD24MACRO1,5.4X3.001X0.0000*%
%ADD25MACRO1,5.4X3.001X90.0000*%
%ADD26C,6.0000*%
%ADD27C,0.6096*%
%ADD28C,0.0126*%

%LPD*%
G36*
X5661660Y190500D02*
G01*
X5657748Y191262D01*
X5654497Y193497D01*
X5652262Y196748D01*
X5651500Y200660D01*
X5651500Y719683D01*
X5652262Y723595D01*
X5654497Y726897D01*
X6194602Y1267002D01*
X6197904Y1269238D01*
X6201816Y1270000D01*
X6993483Y1270000D01*
X6997395Y1269238D01*
X7000697Y1267002D01*
X7248702Y1018997D01*
X7250938Y1015695D01*
X7251700Y1011783D01*
X7251700Y200660D01*
X7250938Y196748D01*
X7248702Y193497D01*
X7245451Y191262D01*
X7241540Y190500D01*
X7033259Y190500D01*
X7029348Y191262D01*
X7026097Y193497D01*
X7023862Y196748D01*
X7023100Y200660D01*
X7023100Y405384D01*
X7022388Y407111D01*
X6922211Y507288D01*
X6920484Y508000D01*
X5995416Y508000D01*
X5993688Y507288D01*
X5880811Y394411D01*
X5880100Y392684D01*
X5880100Y200660D01*
X5879338Y196748D01*
X5877102Y193497D01*
X5873851Y191262D01*
X5869940Y190500D01*
G37*

%LPD*%
G36*
X1931009Y190500D02*
G01*
X1927148Y191262D01*
X1923846Y193497D01*
X1921662Y196748D01*
X1920900Y200660D01*
X1920900Y316077D01*
X1914296Y312775D01*
X1901291Y304190D01*
X1889353Y294182D01*
X1884425Y289001D01*
X1881174Y286664D01*
X1877263Y285800D01*
X1873300Y286512D01*
X1869948Y288747D01*
X1867712Y292049D01*
X1866900Y295960D01*
X1866900Y935583D01*
X1867662Y939495D01*
X1869897Y942797D01*
X2194102Y1267002D01*
X2197404Y1269238D01*
X2201316Y1270000D01*
X3221583Y1270000D01*
X3225495Y1269238D01*
X3228797Y1267002D01*
X3476802Y1018997D01*
X3479037Y1015695D01*
X3479800Y1011783D01*
X3479800Y295960D01*
X3478987Y292049D01*
X3476751Y288747D01*
X3473399Y286512D01*
X3469436Y285800D01*
X3465525Y286664D01*
X3462274Y289001D01*
X3457346Y294182D01*
X3445408Y304190D01*
X3432403Y312775D01*
X3425850Y316077D01*
X3425850Y200660D01*
X3425037Y196748D01*
X3422853Y193497D01*
X3419551Y191262D01*
X3415690Y190500D01*
X3315309Y190500D01*
X3311448Y191262D01*
X3308146Y193497D01*
X3305962Y196748D01*
X3305200Y200660D01*
X3305200Y316077D01*
X3298596Y312775D01*
X3285591Y304190D01*
X3273653Y294182D01*
X3268726Y289001D01*
X3265474Y286664D01*
X3261563Y285800D01*
X3257600Y286512D01*
X3254248Y288747D01*
X3252012Y292049D01*
X3251200Y295960D01*
X3251200Y367284D01*
X3250488Y369011D01*
X3112211Y507288D01*
X3110484Y508000D01*
X2223719Y508000D01*
X2221839Y507238D01*
X2096160Y356362D01*
X2095500Y354838D01*
X2095500Y295960D01*
X2094687Y292049D01*
X2092452Y288747D01*
X2089099Y286512D01*
X2085136Y285800D01*
X2081225Y286664D01*
X2077974Y289001D01*
X2073046Y294182D01*
X2061108Y304190D01*
X2048103Y312775D01*
X2041550Y316077D01*
X2041550Y200660D01*
X2040737Y196748D01*
X2038553Y193497D01*
X2035251Y191262D01*
X2031390Y190500D01*
G37*

%LPD*%
G36*
X8823960Y-495300D02*
G01*
X8820048Y-494538D01*
X8816797Y-492302D01*
X8814562Y-489051D01*
X8813800Y-485140D01*
X8813800Y392684D01*
X8813088Y394411D01*
X7684211Y1523288D01*
X7682484Y1524000D01*
X6109716Y1524000D01*
X6107988Y1523288D01*
X5372100Y787400D01*
X5372100Y200660D01*
X5371338Y196748D01*
X5369102Y193497D01*
X5365851Y191262D01*
X5361940Y190500D01*
X5166360Y190500D01*
X5162448Y191262D01*
X5159197Y193497D01*
X5156962Y196748D01*
X5156200Y200660D01*
X5156200Y824484D01*
X5155488Y826211D01*
X4458411Y1523288D01*
X4456684Y1524000D01*
X2109216Y1524000D01*
X2107488Y1523288D01*
X1588211Y1004011D01*
X1587500Y1002284D01*
X1587500Y200660D01*
X1586738Y196748D01*
X1584502Y193497D01*
X1581251Y191262D01*
X1577340Y190500D01*
X1369060Y190500D01*
X1365148Y191262D01*
X1361897Y193497D01*
X1359662Y196748D01*
X1358900Y200660D01*
X1358900Y1862683D01*
X1359662Y1866595D01*
X1361897Y1869897D01*
X1775002Y2283002D01*
X1778304Y2285238D01*
X1782216Y2286000D01*
X8123783Y2286000D01*
X8127695Y2285238D01*
X8130997Y2283002D01*
X8902801Y1511198D01*
X9343898Y1107897D01*
X9346336Y1104544D01*
X9347200Y1100429D01*
X9347200Y-485140D01*
X9346438Y-489051D01*
X9344202Y-492302D01*
X9340951Y-494538D01*
X9337040Y-495300D01*
G37*

%LPD*%
G36*
X8823960Y-2044700D02*
G01*
X8820048Y-2043938D01*
X8816797Y-2041702D01*
X8814562Y-2038451D01*
X8813800Y-2034539D01*
X8813800Y-1280160D01*
X8814562Y-1276248D01*
X8816797Y-1272997D01*
X8820048Y-1270762D01*
X8823960Y-1270000D01*
X9337040Y-1270000D01*
X9340951Y-1270762D01*
X9344202Y-1272997D01*
X9346438Y-1276248D01*
X9347200Y-1280160D01*
X9347200Y-2034539D01*
X9346438Y-2038451D01*
X9344202Y-2041702D01*
X9340951Y-2043938D01*
X9337040Y-2044700D01*
G37*

%LPD*%
D10*
X5765800Y101600D02*
G01*
X5765800Y533400D01*
X6057900Y825500D01*
X6883400Y825500D01*
X7137400Y571500D01*
X7137400Y101600D01*
X1981200Y101600D02*
G01*
X1981200Y533400D01*
X2260600Y812800D01*
X3009900Y812800D01*
X3365500Y457200D01*
X3365500Y101600D01*
X5257800Y101600D02*
G01*
X5257800Y1181100D01*
X5969000Y1892300D01*
X7670800Y1892300D01*
X9080500Y482600D01*
X9080500Y-558800D01*
X7664958Y-1587500D02*
G01*
X7726126Y-1526331D01*
X7726126Y-762000D01*
X6075126Y-749300D02*
G01*
X5880100Y-944326D01*
X5880100Y-1439621D01*
D11*
X6375400Y-622300D02*
G01*
X6375400Y-876300D01*
X6370873Y-749300D02*
G01*
X6375400Y-744773D01*
X6375400Y-622300D01*
D10*
X2507741Y-1574800D02*
G01*
X2446578Y-1513636D01*
X2446578Y-1143000D01*
X2826258Y-1574800D02*
G01*
X2989026Y-1412031D01*
X2989026Y-762000D01*
X3289300Y-1236421D02*
G01*
X3284773Y-1231894D01*
X3284773Y-762000D01*
X7297978Y-1155700D02*
G01*
X7346441Y-1204163D01*
X7346441Y-1587500D01*
D11*
X1595678Y-723900D02*
G01*
X1612900Y-741121D01*
X1612900Y-863600D01*
D10*
X1299971Y-723900D02*
G01*
X1299971Y-935228D01*
X965200Y-1270000D01*
X965200Y-1477771D01*
D11*
X7664958Y-1587500D02*
G01*
X7658100Y-1594357D01*
X7658100Y-1727200D01*
D10*
X7346441Y-1587500D02*
G01*
X7404100Y-1645157D01*
X7404100Y-2395220D01*
D11*
X2826258Y-1574800D02*
G01*
X2794000Y-1607057D01*
X2794000Y-1714500D01*
D10*
X2507741Y-1574800D02*
G01*
X2463800Y-1618742D01*
X2463800Y-2407920D01*
X8026400Y-1722678D02*
G01*
X7531100Y-2217978D01*
X7531100Y-2395220D01*
X7023100Y-2395220D02*
G01*
X7023100Y-1594357D01*
X7029958Y-1587500D01*
X7652258Y-3263900D02*
G01*
X7658100Y-3258057D01*
X7658100Y-2989579D01*
D11*
X7277100Y-2989579D02*
G01*
X7277100Y-2857500D01*
X7658100Y-2395220D02*
G01*
X7658100Y-2260600D01*
X6769100Y-2395220D02*
G01*
X6769100Y-2260600D01*
D10*
X2711958Y-3251200D02*
G01*
X2838958Y-3378200D01*
X2844800Y-3378200D01*
X2711958Y-3251200D02*
G01*
X2717800Y-3245357D01*
X2717800Y-3002279D01*
X6896100Y-2451100D02*
G01*
X6896100Y-2395220D01*
D11*
X2336800Y-3002279D02*
G01*
X2336800Y-2870200D01*
X2717800Y-2407920D02*
G01*
X2717800Y-2273300D01*
D10*
X1955800Y-2407920D02*
G01*
X1955800Y-2413000D01*
X1955800Y-2413000D02*
G01*
X1955800Y-2273300D01*
X1879600Y-2197100D01*
X1206500Y-2197100D01*
X965200Y-1955800D01*
X965200Y-1773428D01*
D11*
X1828800Y-2407920D02*
G01*
X1828800Y-2273300D01*
D10*
X2082800Y-3002279D02*
G01*
X2082800Y-2870200D01*
X2159000Y-2794000D01*
X2667000Y-2794000D01*
X2717800Y-2844800D01*
X2717800Y-3154679D01*
X5880100Y-1735328D02*
G01*
X5880100Y-1993900D01*
X6045200Y-2159000D01*
X6756400Y-2159000D01*
X6896100Y-2298700D01*
X6896100Y-2451100D01*
X7023100Y-2989579D02*
G01*
X7023100Y-2832100D01*
X7073900Y-2781300D01*
X7607300Y-2781300D01*
X7658100Y-2832100D01*
X7658100Y-3141979D01*
X8026400Y-1426921D02*
G01*
X8021878Y-1422400D01*
X8021878Y-762000D01*
D11*
X6711441Y-1587500D02*
G01*
X6591300Y-1587500D01*
X7029958Y-1587500D02*
G01*
X6921500Y-1479042D01*
X6921500Y-1473200D01*
D10*
X2590800Y-2407920D02*
G01*
X2590800Y-2230678D01*
X3289300Y-1532178D01*
D11*
X1910842Y-1574800D02*
G01*
X1790700Y-1574800D01*
D10*
X2229358Y-1574800D02*
G01*
X2229358Y-1987042D01*
X2082800Y-2133600D01*
X2082800Y-2407920D01*
D11*
X2229358Y-1574800D02*
G01*
X2184400Y-1529842D01*
X2184400Y-1435100D01*
X7726121Y-762000D02*
G01*
X7899400Y-588721D01*
X7899400Y101600D01*
X8021878Y-762000D02*
G01*
X8153400Y-630478D01*
X8153400Y101600D01*
X2989072Y-762000D02*
G01*
X3458972Y-292100D01*
X3949700Y-292100D01*
X4127500Y-114300D01*
X4127500Y101600D01*
X3284778Y-762000D02*
G01*
X3551478Y-495300D01*
X4076700Y-495300D01*
X4381500Y-190500D01*
X4381500Y101600D01*
X2489200Y101600D02*
G01*
X2489200Y-190500D01*
X2286000Y-393700D01*
X1299921Y-723900D02*
G01*
X1630121Y-393700D01*
X2286000Y-393700D01*
X1701800Y-609600D02*
G01*
X1701800Y-617778D01*
X1595678Y-723900D01*
D10*
X2150821Y-1143000D02*
G01*
X2074621Y-1066800D01*
X1511300Y-1066800D01*
X1384300Y-1193800D01*
X1384300Y-1203299D01*
X6248400Y-1165199D02*
G01*
X6372199Y-1041400D01*
X6883400Y-1041400D01*
X6997700Y-1155700D01*
X7002221Y-1155700D01*
D11*
X7404100Y-1054100D02*
G01*
X7302500Y-1155700D01*
X7297978Y-1155700D01*
X2552700Y-1041400D02*
G01*
X2451100Y-1143000D01*
X2446578Y-1143000D01*
D10*
X4699000Y-3898900D02*
G01*
X4699000Y-3683000D01*
X5392420Y-2989579D01*
X6769100Y-2989579D01*
X1828800Y-3002279D02*
G01*
X1828800Y-3276600D01*
X2311400Y-3759200D01*
X4051300Y-3759200D01*
X4191000Y-3898900D01*
X1955800Y-3002279D02*
G01*
X1955800Y-3162300D01*
X2400300Y-3606800D01*
X4152900Y-3606800D01*
X4445000Y-3898900D01*
X6896100Y-2989579D02*
G01*
X6896100Y-3048000D01*
X6743700Y-3200400D01*
X5422900Y-3200400D01*
X4953000Y-3670300D01*
X4953000Y-3898900D01*
X5486400Y-3924300D02*
G01*
X5981700Y-3429000D01*
X6743700Y-3429000D01*
X7023100Y-3149600D01*
X7023100Y-2989579D01*
D11*
X7150100Y-2989579D02*
G01*
X7150100Y-3124200D01*
X7333741Y-3263900D02*
G01*
X7213600Y-3263900D01*
X2209800Y-3002279D02*
G01*
X2209800Y-3136900D01*
X2393441Y-3251200D02*
G01*
X2273300Y-3251200D01*
X6075172Y-749300D02*
G01*
X6075172Y-516128D01*
X6273800Y-317500D01*
X6273800Y101600D01*
D12*
G01*
X7652250Y-3263900D03*
G01*
X7333749Y-3263900D03*
D13*
G01*
X2507749Y-1574800D03*
G01*
X2826250Y-1574800D03*
D12*
G01*
X2229350Y-1574800D03*
G01*
X1910849Y-1574800D03*
G01*
X7029950Y-1587500D03*
G01*
X6711449Y-1587500D03*
D13*
G01*
X7346449Y-1587500D03*
G01*
X7664950Y-1587500D03*
G01*
X2393449Y-3251200D03*
G01*
X2711950Y-3251200D03*
D14*
G01*
X3289300Y-1236423D03*
D15*
G01*
X3289300Y-1532178D03*
D14*
G01*
X965200Y-1477723D03*
D15*
G01*
X965200Y-1773478D03*
D16*
G01*
X1299923Y-723900D03*
G01*
X1595676Y-723900D03*
D17*
G01*
X3284776Y-762000D03*
G01*
X2989023Y-762000D03*
G01*
X8021876Y-762000D03*
G01*
X7726123Y-762000D03*
D16*
G01*
X6075123Y-749300D03*
G01*
X6370876Y-749300D03*
D14*
G01*
X5880100Y-1439623D03*
D15*
G01*
X5880100Y-1735378D03*
D14*
G01*
X8026400Y-1426923D03*
D15*
G01*
X8026400Y-1722678D03*
D18*
G01*
X2717800Y-2407920D03*
G01*
X2590800Y-2407920D03*
G01*
X2463800Y-2407920D03*
G01*
X2336800Y-2407920D03*
G01*
X2209800Y-2407920D03*
G01*
X2082800Y-2407920D03*
G01*
X1955800Y-2407920D03*
G01*
X1828800Y-2407920D03*
G01*
X2717800Y-3002279D03*
G01*
X2590800Y-3002279D03*
G01*
X2463800Y-3002279D03*
G01*
X2336800Y-3002279D03*
G01*
X2209800Y-3002279D03*
G01*
X2082800Y-3002279D03*
G01*
X1955800Y-3002279D03*
G01*
X1828800Y-3002279D03*
G01*
X7658100Y-2395220D03*
G01*
X7531100Y-2395220D03*
G01*
X7404100Y-2395220D03*
G01*
X7277100Y-2395220D03*
G01*
X7150100Y-2395220D03*
G01*
X7023100Y-2395220D03*
G01*
X6896100Y-2395220D03*
G01*
X6769100Y-2395220D03*
G01*
X7658100Y-2989579D03*
G01*
X7531100Y-2989579D03*
G01*
X7404100Y-2989579D03*
G01*
X7277100Y-2989579D03*
G01*
X7150100Y-2989579D03*
G01*
X7023100Y-2989579D03*
G01*
X6896100Y-2989579D03*
G01*
X6769100Y-2989579D03*
D17*
G01*
X2446576Y-1143000D03*
G01*
X2150823Y-1143000D03*
G01*
X7297976Y-1155700D03*
G01*
X7002223Y-1155700D03*
D19*
G01*
X1981200Y101600D03*
G01*
X2235200Y101600D03*
G01*
X2489200Y101600D03*
G01*
X1473200Y101600D03*
G01*
X5765800Y101600D03*
G01*
X6019800Y101600D03*
G01*
X6273800Y101600D03*
G01*
X5257800Y101600D03*
G01*
X7645400Y101600D03*
G01*
X7899400Y101600D03*
G01*
X8153400Y101600D03*
G01*
X7137400Y101600D03*
D20*
G01*
X1384300Y-1203299D03*
G01*
X1384300Y-2073300D03*
G01*
X6248400Y-1165199D03*
G01*
X6248400Y-2035200D03*
D21*
G01*
X4191000Y-3898900D03*
D22*
G01*
X4445000Y-3898900D03*
G01*
X4699000Y-3898900D03*
G01*
X4953000Y-3898900D03*
D20*
G01*
X5486400Y-3416300D03*
G01*
X5486400Y-3670300D03*
D23*
G01*
X5486400Y-3924300D03*
D19*
G01*
X3873500Y101600D03*
G01*
X4127500Y101600D03*
G01*
X4381500Y101600D03*
G01*
X3365500Y101600D03*
D24*
G01*
X9080500Y-558812D03*
G01*
X9080500Y-1193812D03*
G01*
X9067800Y-2120912D03*
G01*
X9067800Y-2755912D03*
D25*
G01*
X5092687Y-1066800D03*
G01*
X4457687Y-1066800D03*
D26*
G01*
X9398000Y-3556000D03*
G01*
X9398000Y2032000D03*
G01*
X508000Y2032000D03*
G01*
X508000Y-3556000D03*
D27*
G01*
X7658100Y-2260600D03*
G01*
X6769100Y-2260600D03*
G01*
X6375400Y-876300D03*
G01*
X6375400Y-622300D03*
G01*
X1612900Y-863600D03*
G01*
X1828800Y-2273300D03*
G01*
X2794000Y-1714500D03*
G01*
X2717800Y-2273300D03*
G01*
X7277100Y-2857500D03*
G01*
X2336800Y-2870200D03*
G01*
X2844800Y-3378200D03*
G01*
X7658100Y-1727200D03*
G01*
X6591300Y-1587500D03*
G01*
X6921500Y-1473200D03*
G01*
X1790700Y-1574800D03*
G01*
X2184400Y-1435100D03*
G01*
X1701800Y-609600D03*
G01*
X7404100Y-1054100D03*
G01*
X2552700Y-1041400D03*
G01*
X7150100Y-3124200D03*
G01*
X7213600Y-3263900D03*
G01*
X2209800Y-3136900D03*
G01*
X2273300Y-3251200D03*
M02*
