G04 Layer: BottomLayer*
G04 EasyEDA v6.5.23, 2023-05-04 17:13:00*
G04 607db096b8b445a3a5bfbfc94cd9f4cc,a707f60854a14c978b55351e1b3b8125,10*
G04 Gerber Generator version 0.2*
G04 Scale: 100 percent, Rotated: No, Reflected: No *
G04 Dimensions in millimeters *
G04 leading zeros omitted , absolute positions ,4 integer and 5 decimal *
%FSLAX45Y45*%
%MOMM*%

%AMMACRO1*21,1,$1,$2,0,0,$3*%
%ADD10C,0.2540*%
%ADD11C,0.5080*%
%ADD12O,2.159X4.064*%
%ADD13C,1.8000*%
%ADD14R,1.7000X1.7000*%
%ADD15C,1.7000*%
%ADD16R,1.8000X1.5748*%
%ADD17MACRO1,5.4X3.001X0.0000*%
%ADD18MACRO1,5.4X3.001X90.0000*%
%ADD19C,6.0000*%
%ADD20C,0.6096*%
%ADD21C,0.0142*%

%LPD*%
G36*
X3769360Y190500D02*
G01*
X3765448Y191262D01*
X3762197Y193497D01*
X3759962Y196748D01*
X3759200Y200660D01*
X3759200Y935583D01*
X3759962Y939495D01*
X3762197Y942797D01*
X4327702Y1508302D01*
X4331004Y1510538D01*
X4334916Y1511300D01*
X7006183Y1511300D01*
X7010095Y1510538D01*
X7013397Y1508302D01*
X7756702Y764997D01*
X7758938Y761695D01*
X7759700Y757783D01*
X7759700Y200660D01*
X7758938Y196748D01*
X7756702Y193497D01*
X7753451Y191262D01*
X7749540Y190500D01*
X7541259Y190500D01*
X7537348Y191262D01*
X7534097Y193497D01*
X7531862Y196748D01*
X7530896Y203098D01*
X7530388Y203911D01*
X6973011Y761288D01*
X6971284Y762000D01*
X4344416Y762000D01*
X4342688Y761288D01*
X3988511Y407111D01*
X3987800Y405384D01*
X3987800Y200660D01*
X3987037Y196748D01*
X3984802Y193497D01*
X3981551Y191262D01*
X3977640Y190500D01*
G37*

%LPD*%
G36*
X3801567Y-1320800D02*
G01*
X3797655Y-1319987D01*
X3794302Y-1317752D01*
X3254095Y-764946D01*
X3251962Y-761695D01*
X3251200Y-757885D01*
X3251200Y2540D01*
X3251962Y6451D01*
X3254197Y9702D01*
X3257448Y11938D01*
X3261360Y12700D01*
X3475583Y12700D01*
X3479495Y11938D01*
X3482797Y9702D01*
X4279188Y-786688D01*
X4280916Y-787400D01*
X4422140Y-787400D01*
X4426051Y-788162D01*
X4429302Y-790397D01*
X4431538Y-793648D01*
X4432300Y-797560D01*
X4432300Y-1310640D01*
X4431538Y-1314551D01*
X4429302Y-1317802D01*
X4426051Y-1320038D01*
X4422140Y-1320800D01*
G37*

%LPD*%
G36*
X5204460Y-1320800D02*
G01*
X5200548Y-1320038D01*
X5197297Y-1317802D01*
X5195062Y-1314551D01*
X5194300Y-1310640D01*
X5194300Y-1042416D01*
X5193792Y-1040790D01*
X4980838Y-790244D01*
X4979009Y-787146D01*
X4978400Y-783640D01*
X4978400Y-715314D01*
X4979162Y-711504D01*
X4981244Y-708253D01*
X5359450Y-317449D01*
X5650788Y-26111D01*
X5651500Y-24384D01*
X5651500Y2540D01*
X5652262Y6451D01*
X5654497Y9702D01*
X5657748Y11938D01*
X5661660Y12700D01*
X5869940Y12700D01*
X5873851Y11938D01*
X5877102Y9702D01*
X5879338Y6451D01*
X5880100Y2540D01*
X5880100Y-998982D01*
X5879287Y-1002944D01*
X5877001Y-1006297D01*
X5552846Y-1317955D01*
X5549595Y-1320088D01*
X5545785Y-1320800D01*
G37*

%LPD*%
G36*
X8373516Y-1358900D02*
G01*
X8369604Y-1358138D01*
X8366302Y-1355902D01*
X7534097Y-523697D01*
X7531862Y-520395D01*
X7531100Y-516483D01*
X7531100Y2540D01*
X7531862Y6451D01*
X7534097Y9702D01*
X7537348Y11938D01*
X7541259Y12700D01*
X7749540Y12700D01*
X7753451Y11938D01*
X7756702Y9702D01*
X7758938Y6451D01*
X7759700Y2540D01*
X7759700Y-125983D01*
X7760411Y-127711D01*
X8686088Y-1053388D01*
X8687816Y-1054100D01*
X9006840Y-1054100D01*
X9010751Y-1054862D01*
X9014002Y-1057097D01*
X9016238Y-1060348D01*
X9017000Y-1064260D01*
X9017000Y-1348740D01*
X9016238Y-1352651D01*
X9014002Y-1355902D01*
X9010751Y-1358138D01*
X9006840Y-1358900D01*
G37*

%LPD*%
G36*
X1394460Y-4025392D02*
G01*
X1390548Y-4024629D01*
X1387297Y-4022394D01*
X1385062Y-4019143D01*
X1384300Y-4015232D01*
X1384300Y-3064916D01*
X1385062Y-3061004D01*
X1387297Y-3057702D01*
X1711502Y-2733497D01*
X1714804Y-2731262D01*
X1718716Y-2730500D01*
X2398776Y-2730500D01*
X2402840Y-2731363D01*
X2406192Y-2733700D01*
X2408326Y-2737256D01*
X2408936Y-2741371D01*
X2407818Y-2745333D01*
X2405176Y-2748534D01*
X2398014Y-2754376D01*
X2341321Y-2811068D01*
X2338425Y-2813100D01*
X2335022Y-2814015D01*
X2326995Y-2814726D01*
X2317546Y-2817266D01*
X2308606Y-2821381D01*
X2300579Y-2827020D01*
X2293620Y-2833979D01*
X2287981Y-2842006D01*
X2283866Y-2850946D01*
X2281326Y-2860395D01*
X2280462Y-2870200D01*
X2281326Y-2880004D01*
X2283866Y-2889453D01*
X2287981Y-2898394D01*
X2293620Y-2906420D01*
X2300579Y-2913380D01*
X2308606Y-2919018D01*
X2317546Y-2923133D01*
X2326995Y-2925673D01*
X2336800Y-2926537D01*
X2346604Y-2925673D01*
X2356053Y-2923133D01*
X2364994Y-2919018D01*
X2373020Y-2913380D01*
X2379980Y-2906420D01*
X2385618Y-2898394D01*
X2389733Y-2889453D01*
X2392273Y-2880004D01*
X2392984Y-2871978D01*
X2393899Y-2868574D01*
X2395931Y-2865678D01*
X2438704Y-2822905D01*
X2442006Y-2820670D01*
X2445918Y-2819908D01*
X4831181Y-2819908D01*
X4835093Y-2820670D01*
X4838395Y-2822905D01*
X5377078Y-3361588D01*
X5379262Y-3364839D01*
X5380075Y-3368649D01*
X5379364Y-3372510D01*
X5376164Y-3380486D01*
X5372557Y-3394608D01*
X5370728Y-3409035D01*
X5370728Y-3423564D01*
X5372557Y-3437991D01*
X5376164Y-3452114D01*
X5381548Y-3465626D01*
X5388559Y-3478377D01*
X5397093Y-3490163D01*
X5407050Y-3500780D01*
X5418277Y-3510076D01*
X5430570Y-3517849D01*
X5443728Y-3524046D01*
X5457596Y-3528568D01*
X5471871Y-3531260D01*
X5486400Y-3532174D01*
X5500928Y-3531260D01*
X5515203Y-3528568D01*
X5529072Y-3524046D01*
X5542229Y-3517849D01*
X5554522Y-3510076D01*
X5565749Y-3500780D01*
X5575706Y-3490163D01*
X5584240Y-3478377D01*
X5591251Y-3465626D01*
X5596636Y-3452114D01*
X5600242Y-3437991D01*
X5602071Y-3423564D01*
X5602071Y-3409035D01*
X5600242Y-3394608D01*
X5596585Y-3380435D01*
X5596331Y-3376980D01*
X5597245Y-3373577D01*
X5599277Y-3370732D01*
X6147104Y-2822905D01*
X6150406Y-2820670D01*
X6154318Y-2819908D01*
X7180681Y-2819908D01*
X7184593Y-2820670D01*
X7187895Y-2822905D01*
X7217968Y-2852978D01*
X7220000Y-2855874D01*
X7220915Y-2859278D01*
X7221626Y-2867304D01*
X7224166Y-2876753D01*
X7228281Y-2885694D01*
X7233920Y-2893720D01*
X7240879Y-2900680D01*
X7248906Y-2906318D01*
X7257846Y-2910433D01*
X7267295Y-2912973D01*
X7277100Y-2913837D01*
X7286904Y-2912973D01*
X7296353Y-2910433D01*
X7305294Y-2906318D01*
X7313320Y-2900680D01*
X7320280Y-2893720D01*
X7325918Y-2885694D01*
X7330033Y-2876753D01*
X7332573Y-2867304D01*
X7333437Y-2857500D01*
X7332573Y-2847695D01*
X7330033Y-2838246D01*
X7325918Y-2829306D01*
X7320280Y-2821279D01*
X7313320Y-2814320D01*
X7305294Y-2808681D01*
X7296353Y-2804566D01*
X7286904Y-2802026D01*
X7278878Y-2801315D01*
X7275474Y-2800400D01*
X7272578Y-2798368D01*
X7228586Y-2754376D01*
X7221423Y-2748534D01*
X7218781Y-2745333D01*
X7217664Y-2741371D01*
X7218273Y-2737256D01*
X7220407Y-2733700D01*
X7223759Y-2731363D01*
X7227824Y-2730500D01*
X7780883Y-2730500D01*
X7784795Y-2731262D01*
X7788097Y-2733497D01*
X8137702Y-3083102D01*
X8139938Y-3086404D01*
X8140700Y-3090316D01*
X8140700Y-4015232D01*
X8139938Y-4019143D01*
X8137702Y-4022394D01*
X8134451Y-4024629D01*
X8130540Y-4025392D01*
X5610098Y-4025392D01*
X5606338Y-4024680D01*
X5603087Y-4022598D01*
X5600852Y-4019448D01*
X5599938Y-4015689D01*
X5600496Y-4011879D01*
X5601614Y-4008780D01*
X5602325Y-4002481D01*
X5602325Y-3846118D01*
X5601614Y-3839819D01*
X5599684Y-3834333D01*
X5596585Y-3829456D01*
X5592521Y-3825341D01*
X5587593Y-3822293D01*
X5582158Y-3820363D01*
X5575808Y-3819651D01*
X5440578Y-3819651D01*
X5436666Y-3818890D01*
X5433364Y-3816654D01*
X4967935Y-3351276D01*
X4961737Y-3346145D01*
X4955032Y-3342589D01*
X4947818Y-3340404D01*
X4939792Y-3339592D01*
X2889808Y-3339592D01*
X2885897Y-3338829D01*
X2882595Y-3336594D01*
X2881020Y-3335020D01*
X2872994Y-3329381D01*
X2864053Y-3325266D01*
X2854604Y-3322726D01*
X2844800Y-3321862D01*
X2834995Y-3322726D01*
X2825546Y-3325266D01*
X2816606Y-3329381D01*
X2808579Y-3335020D01*
X2801620Y-3341979D01*
X2795981Y-3350006D01*
X2791866Y-3358946D01*
X2789326Y-3368395D01*
X2788462Y-3378200D01*
X2789326Y-3388004D01*
X2791866Y-3397453D01*
X2795981Y-3406394D01*
X2801620Y-3414420D01*
X2808579Y-3421379D01*
X2816606Y-3427018D01*
X2825546Y-3431133D01*
X2834995Y-3433673D01*
X2844800Y-3434537D01*
X2854604Y-3433673D01*
X2864053Y-3431133D01*
X2872994Y-3427018D01*
X2881020Y-3421379D01*
X2882595Y-3419805D01*
X2885897Y-3417570D01*
X2889808Y-3416808D01*
X4920081Y-3416808D01*
X4923993Y-3417570D01*
X4927295Y-3419805D01*
X5367528Y-3860037D01*
X5369712Y-3863289D01*
X5370474Y-3867200D01*
X5370474Y-4002481D01*
X5371185Y-4008780D01*
X5372303Y-4011879D01*
X5372862Y-4015689D01*
X5371947Y-4019448D01*
X5369712Y-4022598D01*
X5366461Y-4024680D01*
X5362702Y-4025392D01*
X4986274Y-4025392D01*
X4982159Y-4024528D01*
X4978755Y-4022039D01*
X4976622Y-4018432D01*
X4976164Y-4014266D01*
X4977434Y-4010253D01*
X4980178Y-4007104D01*
X4984546Y-4005224D01*
X4997907Y-4000296D01*
X5010505Y-3993743D01*
X5022138Y-3985615D01*
X5032654Y-3976065D01*
X5041849Y-3965244D01*
X5049621Y-3953306D01*
X5055768Y-3940505D01*
X5060238Y-3927043D01*
X5062982Y-3913073D01*
X5063896Y-3898900D01*
X5062982Y-3884726D01*
X5060238Y-3870756D01*
X5055768Y-3857294D01*
X5049621Y-3844493D01*
X5041849Y-3832555D01*
X5032654Y-3821734D01*
X5022138Y-3812184D01*
X5010505Y-3804056D01*
X4997907Y-3797503D01*
X4984546Y-3792575D01*
X4970678Y-3789426D01*
X4956556Y-3788054D01*
X4942332Y-3788511D01*
X4928311Y-3790797D01*
X4914696Y-3794861D01*
X4901692Y-3800601D01*
X4889550Y-3807968D01*
X4878425Y-3816807D01*
X4868570Y-3827018D01*
X4860086Y-3838397D01*
X4853076Y-3850792D01*
X4847742Y-3863949D01*
X4844135Y-3877716D01*
X4842357Y-3891787D01*
X4842357Y-3906012D01*
X4844135Y-3920083D01*
X4847742Y-3933850D01*
X4853076Y-3947007D01*
X4860086Y-3959402D01*
X4868570Y-3970782D01*
X4878425Y-3980992D01*
X4889550Y-3989832D01*
X4901692Y-3997198D01*
X4914696Y-4002989D01*
X4923231Y-4005478D01*
X4926838Y-4007459D01*
X4929378Y-4010660D01*
X4930495Y-4014622D01*
X4929886Y-4018686D01*
X4927701Y-4022191D01*
X4924348Y-4024579D01*
X4920335Y-4025392D01*
X4732274Y-4025392D01*
X4728159Y-4024528D01*
X4724755Y-4022039D01*
X4722622Y-4018432D01*
X4722164Y-4014266D01*
X4723434Y-4010253D01*
X4726178Y-4007104D01*
X4730546Y-4005224D01*
X4743907Y-4000296D01*
X4756505Y-3993743D01*
X4768138Y-3985615D01*
X4778654Y-3976065D01*
X4787849Y-3965244D01*
X4795621Y-3953306D01*
X4801768Y-3940505D01*
X4806238Y-3927043D01*
X4808982Y-3913073D01*
X4809896Y-3898900D01*
X4808982Y-3884726D01*
X4806238Y-3870756D01*
X4801768Y-3857294D01*
X4795621Y-3844493D01*
X4787849Y-3832555D01*
X4778654Y-3821734D01*
X4768138Y-3812184D01*
X4756505Y-3804056D01*
X4743907Y-3797503D01*
X4730546Y-3792575D01*
X4716678Y-3789426D01*
X4702556Y-3788054D01*
X4688332Y-3788511D01*
X4674311Y-3790797D01*
X4660696Y-3794861D01*
X4647692Y-3800601D01*
X4635550Y-3807968D01*
X4624425Y-3816807D01*
X4614570Y-3827018D01*
X4606086Y-3838397D01*
X4599076Y-3850792D01*
X4593742Y-3863949D01*
X4590135Y-3877716D01*
X4588357Y-3891787D01*
X4588357Y-3906012D01*
X4590135Y-3920083D01*
X4593742Y-3933850D01*
X4599076Y-3947007D01*
X4606086Y-3959402D01*
X4614570Y-3970782D01*
X4624425Y-3980992D01*
X4635550Y-3989832D01*
X4647692Y-3997198D01*
X4660696Y-4002989D01*
X4669231Y-4005478D01*
X4672838Y-4007459D01*
X4675378Y-4010660D01*
X4676495Y-4014622D01*
X4675886Y-4018686D01*
X4673701Y-4022191D01*
X4670348Y-4024579D01*
X4666335Y-4025392D01*
X4478274Y-4025392D01*
X4474159Y-4024528D01*
X4470755Y-4022039D01*
X4468622Y-4018432D01*
X4468164Y-4014266D01*
X4469434Y-4010253D01*
X4472178Y-4007104D01*
X4476546Y-4005224D01*
X4489907Y-4000296D01*
X4502505Y-3993743D01*
X4514138Y-3985615D01*
X4524654Y-3976065D01*
X4533849Y-3965244D01*
X4541621Y-3953306D01*
X4547768Y-3940505D01*
X4552238Y-3927043D01*
X4554982Y-3913073D01*
X4555896Y-3898900D01*
X4554982Y-3884726D01*
X4552238Y-3870756D01*
X4547768Y-3857294D01*
X4541621Y-3844493D01*
X4533849Y-3832555D01*
X4524654Y-3821734D01*
X4514138Y-3812184D01*
X4502505Y-3804056D01*
X4489907Y-3797503D01*
X4476546Y-3792575D01*
X4462678Y-3789426D01*
X4448556Y-3788054D01*
X4434332Y-3788511D01*
X4420311Y-3790797D01*
X4406696Y-3794861D01*
X4393692Y-3800601D01*
X4381550Y-3807968D01*
X4370425Y-3816807D01*
X4360570Y-3827018D01*
X4352086Y-3838397D01*
X4345076Y-3850792D01*
X4339742Y-3863949D01*
X4336135Y-3877716D01*
X4334357Y-3891787D01*
X4334357Y-3906012D01*
X4336135Y-3920083D01*
X4339742Y-3933850D01*
X4345076Y-3947007D01*
X4352086Y-3959402D01*
X4360570Y-3970782D01*
X4370425Y-3980992D01*
X4381550Y-3989832D01*
X4393692Y-3997198D01*
X4406696Y-4002989D01*
X4415231Y-4005478D01*
X4418838Y-4007459D01*
X4421378Y-4010660D01*
X4422495Y-4014622D01*
X4421886Y-4018686D01*
X4419701Y-4022191D01*
X4416348Y-4024579D01*
X4412335Y-4025392D01*
X4293514Y-4025392D01*
X4289247Y-4024477D01*
X4285792Y-4021836D01*
X4283760Y-4018026D01*
X4283456Y-4013708D01*
X4284980Y-4009644D01*
X4288078Y-4006646D01*
X4292092Y-4004106D01*
X4296206Y-3999992D01*
X4299305Y-3995115D01*
X4301185Y-3989628D01*
X4301896Y-3983329D01*
X4301896Y-3814470D01*
X4301185Y-3808171D01*
X4299305Y-3802684D01*
X4296206Y-3797808D01*
X4292092Y-3793693D01*
X4287215Y-3790594D01*
X4281728Y-3788714D01*
X4275429Y-3788003D01*
X4106570Y-3788003D01*
X4100271Y-3788714D01*
X4094784Y-3790594D01*
X4089908Y-3793693D01*
X4085793Y-3797808D01*
X4082694Y-3802684D01*
X4080814Y-3808171D01*
X4080103Y-3814470D01*
X4080103Y-3983329D01*
X4080814Y-3989628D01*
X4082694Y-3995115D01*
X4085793Y-3999992D01*
X4089908Y-4004106D01*
X4093921Y-4006646D01*
X4097020Y-4009644D01*
X4098544Y-4013708D01*
X4098239Y-4018026D01*
X4096207Y-4021836D01*
X4092752Y-4024477D01*
X4088485Y-4025392D01*
G37*

%LPC*%
G36*
X5537758Y-3773982D02*
G01*
X5542229Y-3771849D01*
X5554522Y-3764076D01*
X5565749Y-3754780D01*
X5575706Y-3744163D01*
X5584240Y-3732377D01*
X5590133Y-3721658D01*
X5537758Y-3721658D01*
G37*
G36*
X5435041Y-3773982D02*
G01*
X5435041Y-3721658D01*
X5382666Y-3721658D01*
X5388559Y-3732377D01*
X5397093Y-3744163D01*
X5407050Y-3754780D01*
X5418277Y-3764076D01*
X5430570Y-3771849D01*
G37*
G36*
X5537758Y-3618941D02*
G01*
X5590133Y-3618941D01*
X5584240Y-3608222D01*
X5575706Y-3596436D01*
X5565749Y-3585819D01*
X5554522Y-3576523D01*
X5542229Y-3568750D01*
X5537758Y-3566617D01*
G37*
G36*
X5382666Y-3618941D02*
G01*
X5435041Y-3618941D01*
X5435041Y-3566617D01*
X5430570Y-3568750D01*
X5418277Y-3576523D01*
X5407050Y-3585819D01*
X5397093Y-3596436D01*
X5388559Y-3608222D01*
G37*

%LPD*%
D10*
X5092700Y-1066800D02*
G01*
X5295900Y-1066800D01*
X5765800Y-596900D01*
X5765800Y101600D01*
X3365500Y101600D02*
G01*
X3365500Y-355600D01*
X4076700Y-1066800D01*
X4457700Y-1066800D01*
D11*
X2552700Y-1041400D02*
G01*
X2667000Y-1041400D01*
X3073400Y-1447800D01*
X6654800Y-1447800D01*
X6807200Y-1600200D01*
X7061200Y-1600200D01*
X7404100Y-1257300D01*
X7404100Y-1054100D01*
D10*
X7658100Y-1727200D02*
G01*
X7658100Y-2260600D01*
X2717800Y-2273300D02*
G01*
X2794000Y-2197100D01*
X2794000Y-1714500D01*
X6591300Y-1587500D02*
G01*
X6502400Y-1587500D01*
X6248400Y-1841500D01*
X6248400Y-2035302D01*
X6375400Y-876300D02*
G01*
X6375400Y-927100D01*
X6921500Y-1473200D01*
X2844800Y-3378200D02*
G01*
X4940300Y-3378200D01*
X5486400Y-3924300D01*
X1384300Y-2073300D02*
G01*
X1584299Y-2273300D01*
X1828800Y-2273300D01*
X1790700Y-1574800D02*
G01*
X1714500Y-1574800D01*
X1384300Y-1905000D01*
X1384300Y-2073402D01*
D11*
X1612900Y-863600D02*
G01*
X2184400Y-1435100D01*
D10*
X6769100Y-2260600D02*
G01*
X6705600Y-2197100D01*
X6337300Y-2197100D01*
X6248400Y-2108200D01*
X6248400Y-2035302D01*
D11*
X1701800Y-609600D02*
G01*
X2235200Y-76200D01*
X2235200Y101600D01*
X7404100Y-1054100D02*
G01*
X7683500Y-1054100D01*
X7924800Y-1295400D01*
X7924800Y-2044700D01*
X8636000Y-2755900D01*
X9067800Y-2755900D01*
D10*
X2336800Y-2870200D02*
G01*
X2425700Y-2781300D01*
X4851400Y-2781300D01*
X5486400Y-3416300D01*
X7277100Y-2857500D02*
G01*
X7200900Y-2781300D01*
X6134100Y-2781300D01*
X5499100Y-3416300D01*
X5486400Y-3416300D01*
D11*
X6019800Y101600D02*
G01*
X6019800Y-266700D01*
X6375400Y-622300D01*
D10*
X9080500Y-1193800D02*
G01*
X8267700Y-381000D01*
X7874000Y-381000D01*
X7645400Y-152400D01*
X7645400Y101600D01*
D12*
G01*
X1981200Y101600D03*
G01*
X2235200Y101600D03*
G01*
X2489200Y101600D03*
G01*
X1473200Y101600D03*
G01*
X5765800Y101600D03*
G01*
X6019800Y101600D03*
G01*
X6273800Y101600D03*
G01*
X5257800Y101600D03*
G01*
X7645400Y101600D03*
G01*
X7899400Y101600D03*
G01*
X8153400Y101600D03*
G01*
X7137400Y101600D03*
D13*
G01*
X1384300Y-1203299D03*
G01*
X1384300Y-2073300D03*
G01*
X6248400Y-1165199D03*
G01*
X6248400Y-2035200D03*
D14*
G01*
X4191000Y-3898900D03*
D15*
G01*
X4445000Y-3898900D03*
G01*
X4699000Y-3898900D03*
G01*
X4953000Y-3898900D03*
D13*
G01*
X5486400Y-3416300D03*
G01*
X5486400Y-3670300D03*
D16*
G01*
X5486400Y-3924300D03*
D12*
G01*
X3873500Y101600D03*
G01*
X4127500Y101600D03*
G01*
X4381500Y101600D03*
G01*
X3365500Y101600D03*
D17*
G01*
X9080500Y-558812D03*
G01*
X9080500Y-1193812D03*
G01*
X9067800Y-2120912D03*
G01*
X9067800Y-2755912D03*
D18*
G01*
X5092687Y-1066800D03*
G01*
X4457687Y-1066800D03*
D19*
G01*
X9398000Y-3556000D03*
G01*
X9398000Y2032000D03*
G01*
X508000Y2032000D03*
G01*
X508000Y-3556000D03*
D20*
G01*
X7658100Y-2260600D03*
G01*
X6769100Y-2260600D03*
G01*
X6375400Y-876300D03*
G01*
X6375400Y-622300D03*
G01*
X1612900Y-863600D03*
G01*
X1828800Y-2273300D03*
G01*
X2794000Y-1714500D03*
G01*
X2717800Y-2273300D03*
G01*
X7277100Y-2857500D03*
G01*
X2336800Y-2870200D03*
G01*
X2844800Y-3378200D03*
G01*
X7658100Y-1727200D03*
G01*
X6591300Y-1587500D03*
G01*
X6921500Y-1473200D03*
G01*
X1790700Y-1574800D03*
G01*
X2184400Y-1435100D03*
G01*
X1701800Y-609600D03*
G01*
X7404100Y-1054100D03*
G01*
X2552700Y-1041400D03*
G01*
X7150100Y-3124200D03*
G01*
X7213600Y-3263900D03*
G01*
X2209800Y-3136900D03*
G01*
X2273300Y-3251200D03*
M02*
