G04 Layer: TopPasteMaskLayer*
G04 EasyEDA v6.5.23, 2023-05-04 17:13:00*
G04 607db096b8b445a3a5bfbfc94cd9f4cc,a707f60854a14c978b55351e1b3b8125,10*
G04 Gerber Generator version 0.2*
G04 Scale: 100 percent, Rotated: No, Reflected: No *
G04 Dimensions in millimeters *
G04 leading zeros omitted , absolute positions ,4 integer and 5 decimal *
%FSLAX45Y45*%
%MOMM*%

%ADD10O,0.5999988X1.7999964*%

%LPD*%
G36*
X7587996Y-3177489D02*
G01*
X7577988Y-3187496D01*
X7577988Y-3224530D01*
X7587996Y-3234537D01*
X7618475Y-3234537D01*
X7628483Y-3244545D01*
X7628483Y-3283254D01*
X7618475Y-3293262D01*
X7587996Y-3293262D01*
X7577988Y-3303270D01*
X7577988Y-3340303D01*
X7587996Y-3350310D01*
X7716520Y-3350310D01*
X7726476Y-3340303D01*
X7726476Y-3187496D01*
X7716520Y-3177489D01*
G37*
G36*
X7269480Y-3177489D02*
G01*
X7259523Y-3187496D01*
X7259523Y-3340303D01*
X7269480Y-3350310D01*
X7398003Y-3350310D01*
X7408011Y-3340303D01*
X7408011Y-3303270D01*
X7398003Y-3293262D01*
X7367524Y-3293262D01*
X7357516Y-3283254D01*
X7357516Y-3244545D01*
X7367524Y-3234537D01*
X7398003Y-3234537D01*
X7408011Y-3224530D01*
X7408011Y-3187496D01*
X7398003Y-3177489D01*
G37*
G36*
X2443480Y-1488389D02*
G01*
X2433523Y-1498396D01*
X2433523Y-1651203D01*
X2443480Y-1661210D01*
X2572004Y-1661210D01*
X2582011Y-1651203D01*
X2582011Y-1614170D01*
X2572004Y-1604162D01*
X2541524Y-1604162D01*
X2531516Y-1594154D01*
X2531516Y-1555445D01*
X2541524Y-1545437D01*
X2572004Y-1545437D01*
X2582011Y-1535430D01*
X2582011Y-1498396D01*
X2572004Y-1488389D01*
G37*
G36*
X2761996Y-1488389D02*
G01*
X2751988Y-1498396D01*
X2751988Y-1535430D01*
X2761996Y-1545437D01*
X2792476Y-1545437D01*
X2802483Y-1555445D01*
X2802483Y-1594154D01*
X2792476Y-1604162D01*
X2761996Y-1604162D01*
X2751988Y-1614170D01*
X2751988Y-1651203D01*
X2761996Y-1661210D01*
X2890520Y-1661210D01*
X2900476Y-1651203D01*
X2900476Y-1498396D01*
X2890520Y-1488389D01*
G37*
G36*
X2165096Y-1488389D02*
G01*
X2155088Y-1498396D01*
X2155088Y-1535430D01*
X2165096Y-1545437D01*
X2195576Y-1545437D01*
X2205583Y-1555445D01*
X2205583Y-1594154D01*
X2195576Y-1604162D01*
X2165096Y-1604162D01*
X2155088Y-1614170D01*
X2155088Y-1651203D01*
X2165096Y-1661210D01*
X2293620Y-1661210D01*
X2303576Y-1651203D01*
X2303576Y-1498396D01*
X2293620Y-1488389D01*
G37*
G36*
X1846580Y-1488389D02*
G01*
X1836623Y-1498396D01*
X1836623Y-1651203D01*
X1846580Y-1661210D01*
X1975104Y-1661210D01*
X1985111Y-1651203D01*
X1985111Y-1614170D01*
X1975104Y-1604162D01*
X1944624Y-1604162D01*
X1934616Y-1594154D01*
X1934616Y-1555445D01*
X1944624Y-1545437D01*
X1975104Y-1545437D01*
X1985111Y-1535430D01*
X1985111Y-1498396D01*
X1975104Y-1488389D01*
G37*
G36*
X6965696Y-1501089D02*
G01*
X6955688Y-1511096D01*
X6955688Y-1548130D01*
X6965696Y-1558137D01*
X6996175Y-1558137D01*
X7006183Y-1568145D01*
X7006183Y-1606854D01*
X6996175Y-1616862D01*
X6965696Y-1616862D01*
X6955688Y-1626870D01*
X6955688Y-1663903D01*
X6965696Y-1673910D01*
X7094220Y-1673910D01*
X7104176Y-1663903D01*
X7104176Y-1511096D01*
X7094220Y-1501089D01*
G37*
G36*
X6647180Y-1501089D02*
G01*
X6637223Y-1511096D01*
X6637223Y-1663903D01*
X6647180Y-1673910D01*
X6775703Y-1673910D01*
X6785711Y-1663903D01*
X6785711Y-1626870D01*
X6775703Y-1616862D01*
X6745224Y-1616862D01*
X6735216Y-1606854D01*
X6735216Y-1568145D01*
X6745224Y-1558137D01*
X6775703Y-1558137D01*
X6785711Y-1548130D01*
X6785711Y-1511096D01*
X6775703Y-1501089D01*
G37*
G36*
X7282180Y-1501089D02*
G01*
X7272223Y-1511096D01*
X7272223Y-1663903D01*
X7282180Y-1673910D01*
X7410703Y-1673910D01*
X7420711Y-1663903D01*
X7420711Y-1626870D01*
X7410703Y-1616862D01*
X7380224Y-1616862D01*
X7370216Y-1606854D01*
X7370216Y-1568145D01*
X7380224Y-1558137D01*
X7410703Y-1558137D01*
X7420711Y-1548130D01*
X7420711Y-1511096D01*
X7410703Y-1501089D01*
G37*
G36*
X7600696Y-1501089D02*
G01*
X7590688Y-1511096D01*
X7590688Y-1548130D01*
X7600696Y-1558137D01*
X7631175Y-1558137D01*
X7641183Y-1568145D01*
X7641183Y-1606854D01*
X7631175Y-1616862D01*
X7600696Y-1616862D01*
X7590688Y-1626870D01*
X7590688Y-1663903D01*
X7600696Y-1673910D01*
X7729220Y-1673910D01*
X7739176Y-1663903D01*
X7739176Y-1511096D01*
X7729220Y-1501089D01*
G37*
G36*
X2329180Y-3164789D02*
G01*
X2319223Y-3174796D01*
X2319223Y-3327603D01*
X2329180Y-3337610D01*
X2457704Y-3337610D01*
X2467711Y-3327603D01*
X2467711Y-3290570D01*
X2457704Y-3280562D01*
X2427224Y-3280562D01*
X2417216Y-3270554D01*
X2417216Y-3231845D01*
X2427224Y-3221837D01*
X2457704Y-3221837D01*
X2467711Y-3211830D01*
X2467711Y-3174796D01*
X2457704Y-3164789D01*
G37*
G36*
X2647696Y-3164789D02*
G01*
X2637688Y-3174796D01*
X2637688Y-3211830D01*
X2647696Y-3221837D01*
X2678176Y-3221837D01*
X2688183Y-3231845D01*
X2688183Y-3270554D01*
X2678176Y-3280562D01*
X2647696Y-3280562D01*
X2637688Y-3290570D01*
X2637688Y-3327603D01*
X2647696Y-3337610D01*
X2776220Y-3337610D01*
X2786176Y-3327603D01*
X2786176Y-3174796D01*
X2776220Y-3164789D01*
G37*
G36*
X3214268Y-1176070D02*
G01*
X3204260Y-1186027D01*
X3204260Y-1286814D01*
X3214268Y-1296822D01*
X3250387Y-1296822D01*
X3260394Y-1286814D01*
X3260394Y-1265732D01*
X3270402Y-1255725D01*
X3308197Y-1255725D01*
X3318205Y-1265732D01*
X3318205Y-1286814D01*
X3328212Y-1296822D01*
X3364331Y-1296822D01*
X3374339Y-1286814D01*
X3374339Y-1186027D01*
X3364331Y-1176070D01*
G37*
G36*
X3214268Y-1471777D02*
G01*
X3204260Y-1481785D01*
X3204260Y-1582572D01*
X3214268Y-1592529D01*
X3364331Y-1592529D01*
X3374339Y-1582572D01*
X3374339Y-1481785D01*
X3364331Y-1471777D01*
X3328212Y-1471777D01*
X3318205Y-1481785D01*
X3318205Y-1502867D01*
X3308197Y-1512874D01*
X3270402Y-1512874D01*
X3260394Y-1502867D01*
X3260394Y-1481785D01*
X3250387Y-1471777D01*
G37*
G36*
X890168Y-1417370D02*
G01*
X880160Y-1427327D01*
X880160Y-1528114D01*
X890168Y-1538122D01*
X926287Y-1538122D01*
X936294Y-1528114D01*
X936294Y-1507032D01*
X946302Y-1497025D01*
X984097Y-1497025D01*
X994105Y-1507032D01*
X994105Y-1528114D01*
X1004112Y-1538122D01*
X1040231Y-1538122D01*
X1050239Y-1528114D01*
X1050239Y-1427327D01*
X1040231Y-1417370D01*
G37*
G36*
X890168Y-1713077D02*
G01*
X880160Y-1723085D01*
X880160Y-1823872D01*
X890168Y-1833829D01*
X1040231Y-1833829D01*
X1050239Y-1823872D01*
X1050239Y-1723085D01*
X1040231Y-1713077D01*
X1004112Y-1713077D01*
X994105Y-1723085D01*
X994105Y-1744167D01*
X984097Y-1754174D01*
X946302Y-1754174D01*
X936294Y-1744167D01*
X936294Y-1723085D01*
X926287Y-1713077D01*
G37*
G36*
X1249527Y-638860D02*
G01*
X1239570Y-648868D01*
X1239570Y-798931D01*
X1249527Y-808939D01*
X1350314Y-808939D01*
X1360322Y-798931D01*
X1360322Y-762812D01*
X1350314Y-752805D01*
X1329232Y-752805D01*
X1319225Y-742797D01*
X1319225Y-705002D01*
X1329232Y-694994D01*
X1350314Y-694994D01*
X1360322Y-684987D01*
X1360322Y-648868D01*
X1350314Y-638860D01*
G37*
G36*
X1545285Y-638860D02*
G01*
X1535277Y-648868D01*
X1535277Y-684987D01*
X1545285Y-694994D01*
X1566367Y-694994D01*
X1576374Y-705002D01*
X1576374Y-742797D01*
X1566367Y-752805D01*
X1545285Y-752805D01*
X1535277Y-762812D01*
X1535277Y-798931D01*
X1545285Y-808939D01*
X1646072Y-808939D01*
X1656029Y-798931D01*
X1656029Y-648868D01*
X1646072Y-638860D01*
G37*
G36*
X3234385Y-676960D02*
G01*
X3224377Y-686968D01*
X3224377Y-723087D01*
X3234385Y-733094D01*
X3255467Y-733094D01*
X3265474Y-743102D01*
X3265474Y-780897D01*
X3255467Y-790905D01*
X3234385Y-790905D01*
X3224377Y-800912D01*
X3224377Y-837031D01*
X3234385Y-847039D01*
X3335172Y-847039D01*
X3345129Y-837031D01*
X3345129Y-686968D01*
X3335172Y-676960D01*
G37*
G36*
X2938627Y-676960D02*
G01*
X2928670Y-686968D01*
X2928670Y-837031D01*
X2938627Y-847039D01*
X3039414Y-847039D01*
X3049422Y-837031D01*
X3049422Y-800912D01*
X3039414Y-790905D01*
X3018332Y-790905D01*
X3008325Y-780897D01*
X3008325Y-743102D01*
X3018332Y-733094D01*
X3039414Y-733094D01*
X3049422Y-723087D01*
X3049422Y-686968D01*
X3039414Y-676960D01*
G37*
G36*
X7971485Y-676960D02*
G01*
X7961477Y-686968D01*
X7961477Y-723087D01*
X7971485Y-733094D01*
X7992567Y-733094D01*
X8002574Y-743102D01*
X8002574Y-780897D01*
X7992567Y-790905D01*
X7971485Y-790905D01*
X7961477Y-800912D01*
X7961477Y-837031D01*
X7971485Y-847039D01*
X8072272Y-847039D01*
X8082229Y-837031D01*
X8082229Y-686968D01*
X8072272Y-676960D01*
G37*
G36*
X7675727Y-676960D02*
G01*
X7665770Y-686968D01*
X7665770Y-837031D01*
X7675727Y-847039D01*
X7776514Y-847039D01*
X7786522Y-837031D01*
X7786522Y-800912D01*
X7776514Y-790905D01*
X7755432Y-790905D01*
X7745425Y-780897D01*
X7745425Y-743102D01*
X7755432Y-733094D01*
X7776514Y-733094D01*
X7786522Y-723087D01*
X7786522Y-686968D01*
X7776514Y-676960D01*
G37*
G36*
X6024727Y-664260D02*
G01*
X6014770Y-674268D01*
X6014770Y-824331D01*
X6024727Y-834339D01*
X6125514Y-834339D01*
X6135522Y-824331D01*
X6135522Y-788212D01*
X6125514Y-778205D01*
X6104432Y-778205D01*
X6094425Y-768197D01*
X6094425Y-730402D01*
X6104432Y-720394D01*
X6125514Y-720394D01*
X6135522Y-710387D01*
X6135522Y-674268D01*
X6125514Y-664260D01*
G37*
G36*
X6320485Y-664260D02*
G01*
X6310477Y-674268D01*
X6310477Y-710387D01*
X6320485Y-720394D01*
X6341567Y-720394D01*
X6351574Y-730402D01*
X6351574Y-768197D01*
X6341567Y-778205D01*
X6320485Y-778205D01*
X6310477Y-788212D01*
X6310477Y-824331D01*
X6320485Y-834339D01*
X6421272Y-834339D01*
X6431229Y-824331D01*
X6431229Y-674268D01*
X6421272Y-664260D01*
G37*
G36*
X5805068Y-1379270D02*
G01*
X5795060Y-1389227D01*
X5795060Y-1490014D01*
X5805068Y-1500022D01*
X5841187Y-1500022D01*
X5851194Y-1490014D01*
X5851194Y-1468932D01*
X5861202Y-1458925D01*
X5898997Y-1458925D01*
X5909005Y-1468932D01*
X5909005Y-1490014D01*
X5919012Y-1500022D01*
X5955131Y-1500022D01*
X5965139Y-1490014D01*
X5965139Y-1389227D01*
X5955131Y-1379270D01*
G37*
G36*
X5805068Y-1674977D02*
G01*
X5795060Y-1684985D01*
X5795060Y-1785772D01*
X5805068Y-1795729D01*
X5955131Y-1795729D01*
X5965139Y-1785772D01*
X5965139Y-1684985D01*
X5955131Y-1674977D01*
X5919012Y-1674977D01*
X5909005Y-1684985D01*
X5909005Y-1706067D01*
X5898997Y-1716074D01*
X5861202Y-1716074D01*
X5851194Y-1706067D01*
X5851194Y-1684985D01*
X5841187Y-1674977D01*
G37*
G36*
X7951368Y-1366570D02*
G01*
X7941360Y-1376527D01*
X7941360Y-1477314D01*
X7951368Y-1487322D01*
X7987487Y-1487322D01*
X7997494Y-1477314D01*
X7997494Y-1456232D01*
X8007502Y-1446225D01*
X8045297Y-1446225D01*
X8055305Y-1456232D01*
X8055305Y-1477314D01*
X8065312Y-1487322D01*
X8101431Y-1487322D01*
X8111439Y-1477314D01*
X8111439Y-1376527D01*
X8101431Y-1366570D01*
G37*
G36*
X7951368Y-1662277D02*
G01*
X7941360Y-1672285D01*
X7941360Y-1773072D01*
X7951368Y-1783029D01*
X8101431Y-1783029D01*
X8111439Y-1773072D01*
X8111439Y-1672285D01*
X8101431Y-1662277D01*
X8065312Y-1662277D01*
X8055305Y-1672285D01*
X8055305Y-1693367D01*
X8045297Y-1703374D01*
X8007502Y-1703374D01*
X7997494Y-1693367D01*
X7997494Y-1672285D01*
X7987487Y-1662277D01*
G37*
G36*
X2396185Y-1057960D02*
G01*
X2386177Y-1067968D01*
X2386177Y-1104087D01*
X2396185Y-1114094D01*
X2417267Y-1114094D01*
X2427274Y-1124102D01*
X2427274Y-1161897D01*
X2417267Y-1171905D01*
X2396185Y-1171905D01*
X2386177Y-1181912D01*
X2386177Y-1218031D01*
X2396185Y-1228039D01*
X2496972Y-1228039D01*
X2506929Y-1218031D01*
X2506929Y-1067968D01*
X2496972Y-1057960D01*
G37*
G36*
X2100427Y-1057960D02*
G01*
X2090470Y-1067968D01*
X2090470Y-1218031D01*
X2100427Y-1228039D01*
X2201214Y-1228039D01*
X2211222Y-1218031D01*
X2211222Y-1181912D01*
X2201214Y-1171905D01*
X2180132Y-1171905D01*
X2170125Y-1161897D01*
X2170125Y-1124102D01*
X2180132Y-1114094D01*
X2201214Y-1114094D01*
X2211222Y-1104087D01*
X2211222Y-1067968D01*
X2201214Y-1057960D01*
G37*
G36*
X7247585Y-1070660D02*
G01*
X7237577Y-1080668D01*
X7237577Y-1116787D01*
X7247585Y-1126794D01*
X7268667Y-1126794D01*
X7278674Y-1136802D01*
X7278674Y-1174597D01*
X7268667Y-1184605D01*
X7247585Y-1184605D01*
X7237577Y-1194612D01*
X7237577Y-1230731D01*
X7247585Y-1240739D01*
X7348372Y-1240739D01*
X7358329Y-1230731D01*
X7358329Y-1080668D01*
X7348372Y-1070660D01*
G37*
G36*
X6951827Y-1070660D02*
G01*
X6941870Y-1080668D01*
X6941870Y-1230731D01*
X6951827Y-1240739D01*
X7052614Y-1240739D01*
X7062622Y-1230731D01*
X7062622Y-1194612D01*
X7052614Y-1184605D01*
X7031532Y-1184605D01*
X7021525Y-1174597D01*
X7021525Y-1136802D01*
X7031532Y-1126794D01*
X7052614Y-1126794D01*
X7062622Y-1116787D01*
X7062622Y-1080668D01*
X7052614Y-1070660D01*
G37*
D10*
G01*
X2717800Y-2407920D03*
G01*
X2590800Y-2407920D03*
G01*
X2463800Y-2407920D03*
G01*
X2336800Y-2407920D03*
G01*
X2209800Y-2407920D03*
G01*
X2082800Y-2407920D03*
G01*
X1955800Y-2407920D03*
G01*
X1828800Y-2407920D03*
G01*
X2717800Y-3002279D03*
G01*
X2590800Y-3002279D03*
G01*
X2463800Y-3002279D03*
G01*
X2336800Y-3002279D03*
G01*
X2209800Y-3002279D03*
G01*
X2082800Y-3002279D03*
G01*
X1955800Y-3002279D03*
G01*
X1828800Y-3002279D03*
G01*
X7658100Y-2395220D03*
G01*
X7531100Y-2395220D03*
G01*
X7404100Y-2395220D03*
G01*
X7277100Y-2395220D03*
G01*
X7150100Y-2395220D03*
G01*
X7023100Y-2395220D03*
G01*
X6896100Y-2395220D03*
G01*
X6769100Y-2395220D03*
G01*
X7658100Y-2989579D03*
G01*
X7531100Y-2989579D03*
G01*
X7404100Y-2989579D03*
G01*
X7277100Y-2989579D03*
G01*
X7150100Y-2989579D03*
G01*
X7023100Y-2989579D03*
G01*
X6896100Y-2989579D03*
G01*
X6769100Y-2989579D03*
M02*
