G04 Layer: TopSilkscreenLayer*
G04 EasyEDA v6.5.23, 2023-05-04 17:13:00*
G04 607db096b8b445a3a5bfbfc94cd9f4cc,a707f60854a14c978b55351e1b3b8125,10*
G04 Gerber Generator version 0.2*
G04 Scale: 100 percent, Rotated: No, Reflected: No *
G04 Dimensions in millimeters *
G04 leading zeros omitted , absolute positions ,4 integer and 5 decimal *
%FSLAX45Y45*%
%MOMM*%

%ADD10C,0.1524*%
%ADD11C,0.2032*%
%ADD12C,0.2540*%
%ADD13C,0.2030*%

%LPD*%
D10*
X2012441Y674115D02*
G01*
X2002027Y669036D01*
X1991613Y658621D01*
X1986279Y648207D01*
X1981200Y632460D01*
X1981200Y606552D01*
X1986279Y591057D01*
X1991613Y580644D01*
X2002027Y570229D01*
X2012441Y565150D01*
X2033270Y565150D01*
X2043429Y570229D01*
X2053843Y580644D01*
X2059177Y591057D01*
X2064258Y606552D01*
X2064258Y632460D01*
X2059177Y648207D01*
X2053843Y658621D01*
X2043429Y669036D01*
X2033270Y674115D01*
X2012441Y674115D01*
X2027936Y585723D02*
G01*
X2059177Y554736D01*
X2098547Y653287D02*
G01*
X2108961Y658621D01*
X2124709Y674115D01*
X2124709Y565150D01*
D11*
X1397000Y-201421D02*
G01*
X1397000Y-395223D01*
X1397000Y-201421D02*
G01*
X1461770Y-201421D01*
X1489455Y-210565D01*
X1507744Y-229107D01*
X1517142Y-247650D01*
X1526286Y-275336D01*
X1526286Y-321310D01*
X1517142Y-349250D01*
X1507744Y-367537D01*
X1489455Y-386079D01*
X1461770Y-395223D01*
X1397000Y-395223D01*
X2034286Y-229107D02*
G01*
X2015743Y-210565D01*
X1988058Y-201421D01*
X1951227Y-201421D01*
X1923542Y-210565D01*
X1905000Y-229107D01*
X1905000Y-247650D01*
X1914144Y-265937D01*
X1923542Y-275336D01*
X1941829Y-284479D01*
X1997456Y-303021D01*
X2015743Y-312165D01*
X2025141Y-321310D01*
X2034286Y-339852D01*
X2034286Y-367537D01*
X2015743Y-386079D01*
X1988058Y-395223D01*
X1951227Y-395223D01*
X1923542Y-386079D01*
X1905000Y-367537D01*
X2288286Y-229107D02*
G01*
X2269743Y-210565D01*
X2242058Y-201421D01*
X2205227Y-201421D01*
X2177541Y-210565D01*
X2159000Y-229107D01*
X2159000Y-247650D01*
X2168143Y-265937D01*
X2177541Y-275336D01*
X2195829Y-284479D01*
X2251456Y-303021D01*
X2269743Y-312165D01*
X2279141Y-321310D01*
X2288286Y-339852D01*
X2288286Y-367537D01*
X2269743Y-386079D01*
X2242058Y-395223D01*
X2205227Y-395223D01*
X2177541Y-386079D01*
X2159000Y-367537D01*
X2551427Y-247655D02*
G01*
X2542283Y-229113D01*
X2523741Y-210571D01*
X2505453Y-201427D01*
X2468369Y-201427D01*
X2449827Y-210571D01*
X2431539Y-229113D01*
X2422141Y-247655D01*
X2412997Y-275341D01*
X2412997Y-321315D01*
X2422141Y-349255D01*
X2431539Y-367543D01*
X2449827Y-386085D01*
X2468369Y-395229D01*
X2505453Y-395229D01*
X2523741Y-386085D01*
X2542283Y-367543D01*
X2551427Y-349255D01*
X2551427Y-321315D01*
X2505453Y-321315D02*
G01*
X2551427Y-321315D01*
D10*
X5797041Y674115D02*
G01*
X5786627Y669036D01*
X5776213Y658621D01*
X5770879Y648207D01*
X5765800Y632460D01*
X5765800Y606552D01*
X5770879Y591057D01*
X5776213Y580644D01*
X5786627Y570229D01*
X5797041Y565150D01*
X5817870Y565150D01*
X5828029Y570229D01*
X5838443Y580644D01*
X5843777Y591057D01*
X5848858Y606552D01*
X5848858Y632460D01*
X5843777Y648207D01*
X5838443Y658621D01*
X5828029Y669036D01*
X5817870Y674115D01*
X5797041Y674115D01*
X5812536Y585723D02*
G01*
X5843777Y554736D01*
X5888481Y648207D02*
G01*
X5888481Y653287D01*
X5893561Y663702D01*
X5898895Y669036D01*
X5909309Y674115D01*
X5929884Y674115D01*
X5940297Y669036D01*
X5945631Y663702D01*
X5950711Y653287D01*
X5950711Y642873D01*
X5945631Y632460D01*
X5935218Y616965D01*
X5883147Y565150D01*
X5956045Y565150D01*
D11*
X5181600Y-201421D02*
G01*
X5181600Y-395223D01*
X5181600Y-201421D02*
G01*
X5246370Y-201421D01*
X5274056Y-210565D01*
X5292343Y-229107D01*
X5301741Y-247650D01*
X5310886Y-275336D01*
X5310886Y-321310D01*
X5301741Y-349250D01*
X5292343Y-367537D01*
X5274056Y-386079D01*
X5246370Y-395223D01*
X5181600Y-395223D01*
X5818886Y-229107D02*
G01*
X5800343Y-210565D01*
X5772658Y-201421D01*
X5735827Y-201421D01*
X5708141Y-210565D01*
X5689600Y-229107D01*
X5689600Y-247650D01*
X5698743Y-265937D01*
X5708141Y-275336D01*
X5726429Y-284479D01*
X5782056Y-303021D01*
X5800343Y-312165D01*
X5809741Y-321310D01*
X5818886Y-339852D01*
X5818886Y-367537D01*
X5800343Y-386079D01*
X5772658Y-395223D01*
X5735827Y-395223D01*
X5708141Y-386079D01*
X5689600Y-367537D01*
X6072886Y-229107D02*
G01*
X6054343Y-210565D01*
X6026658Y-201421D01*
X5989827Y-201421D01*
X5962141Y-210565D01*
X5943600Y-229107D01*
X5943600Y-247650D01*
X5952743Y-265937D01*
X5962141Y-275336D01*
X5980429Y-284479D01*
X6036056Y-303021D01*
X6054343Y-312165D01*
X6063741Y-321310D01*
X6072886Y-339852D01*
X6072886Y-367537D01*
X6054343Y-386079D01*
X6026658Y-395223D01*
X5989827Y-395223D01*
X5962141Y-386079D01*
X5943600Y-367537D01*
X6336027Y-247655D02*
G01*
X6326883Y-229113D01*
X6308341Y-210571D01*
X6290053Y-201427D01*
X6252969Y-201427D01*
X6234427Y-210571D01*
X6216139Y-229113D01*
X6206741Y-247655D01*
X6197597Y-275341D01*
X6197597Y-321315D01*
X6206741Y-349255D01*
X6216139Y-367543D01*
X6234427Y-386085D01*
X6252969Y-395229D01*
X6290053Y-395229D01*
X6308341Y-386085D01*
X6326883Y-367543D01*
X6336027Y-349255D01*
X6336027Y-321315D01*
X6290053Y-321315D02*
G01*
X6336027Y-321315D01*
D10*
X7676641Y674115D02*
G01*
X7666227Y669036D01*
X7655813Y658621D01*
X7650479Y648207D01*
X7645400Y632460D01*
X7645400Y606552D01*
X7650479Y591057D01*
X7655813Y580644D01*
X7666227Y570229D01*
X7676641Y565150D01*
X7697470Y565150D01*
X7707629Y570229D01*
X7718043Y580644D01*
X7723377Y591057D01*
X7728458Y606552D01*
X7728458Y632460D01*
X7723377Y648207D01*
X7718043Y658621D01*
X7707629Y669036D01*
X7697470Y674115D01*
X7676641Y674115D01*
X7692136Y585723D02*
G01*
X7723377Y554736D01*
X7814818Y674115D02*
G01*
X7762747Y601471D01*
X7840725Y601471D01*
X7814818Y674115D02*
G01*
X7814818Y565150D01*
D11*
X7061200Y-201421D02*
G01*
X7061200Y-395223D01*
X7061200Y-201421D02*
G01*
X7125970Y-201421D01*
X7153656Y-210565D01*
X7171943Y-229107D01*
X7181341Y-247650D01*
X7190486Y-275336D01*
X7190486Y-321310D01*
X7181341Y-349250D01*
X7171943Y-367537D01*
X7153656Y-386079D01*
X7125970Y-395223D01*
X7061200Y-395223D01*
X7698486Y-229107D02*
G01*
X7679943Y-210565D01*
X7652258Y-201421D01*
X7615427Y-201421D01*
X7587741Y-210565D01*
X7569200Y-229107D01*
X7569200Y-247650D01*
X7578343Y-265937D01*
X7587741Y-275336D01*
X7606029Y-284479D01*
X7661656Y-303021D01*
X7679943Y-312165D01*
X7689341Y-321310D01*
X7698486Y-339852D01*
X7698486Y-367537D01*
X7679943Y-386079D01*
X7652258Y-395223D01*
X7615427Y-395223D01*
X7587741Y-386079D01*
X7569200Y-367537D01*
X7952486Y-229107D02*
G01*
X7933943Y-210565D01*
X7906258Y-201421D01*
X7869427Y-201421D01*
X7841741Y-210565D01*
X7823200Y-229107D01*
X7823200Y-247650D01*
X7832343Y-265937D01*
X7841741Y-275336D01*
X7860029Y-284479D01*
X7915656Y-303021D01*
X7933943Y-312165D01*
X7943341Y-321310D01*
X7952486Y-339852D01*
X7952486Y-367537D01*
X7933943Y-386079D01*
X7906258Y-395223D01*
X7869427Y-395223D01*
X7841741Y-386079D01*
X7823200Y-367537D01*
X8215627Y-247655D02*
G01*
X8206483Y-229113D01*
X8187941Y-210571D01*
X8169653Y-201427D01*
X8132569Y-201427D01*
X8114027Y-210571D01*
X8095739Y-229113D01*
X8086341Y-247655D01*
X8077197Y-275341D01*
X8077197Y-321315D01*
X8086341Y-349255D01*
X8095739Y-367543D01*
X8114027Y-386085D01*
X8132569Y-395229D01*
X8169653Y-395229D01*
X8187941Y-386085D01*
X8206483Y-367543D01*
X8215627Y-349255D01*
X8215627Y-321315D01*
X8169653Y-321315D02*
G01*
X8215627Y-321315D01*
D10*
X7494777Y-3441192D02*
G01*
X7489443Y-3430778D01*
X7479029Y-3420363D01*
X7468870Y-3415284D01*
X7448041Y-3415284D01*
X7437627Y-3420363D01*
X7427213Y-3430778D01*
X7421879Y-3441192D01*
X7416800Y-3456939D01*
X7416800Y-3482847D01*
X7421879Y-3498342D01*
X7427213Y-3508755D01*
X7437627Y-3519170D01*
X7448041Y-3524250D01*
X7468870Y-3524250D01*
X7479029Y-3519170D01*
X7489443Y-3508755D01*
X7494777Y-3498342D01*
X7529068Y-3436112D02*
G01*
X7539481Y-3430778D01*
X7554975Y-3415284D01*
X7554975Y-3524250D01*
X2668777Y-1320292D02*
G01*
X2663443Y-1309878D01*
X2653029Y-1299463D01*
X2642870Y-1294384D01*
X2622041Y-1294384D01*
X2611627Y-1299463D01*
X2601213Y-1309878D01*
X2595879Y-1320292D01*
X2590800Y-1336039D01*
X2590800Y-1361947D01*
X2595879Y-1377442D01*
X2601213Y-1387855D01*
X2611627Y-1398270D01*
X2622041Y-1403350D01*
X2642870Y-1403350D01*
X2653029Y-1398270D01*
X2663443Y-1387855D01*
X2668777Y-1377442D01*
X2708147Y-1320292D02*
G01*
X2708147Y-1315212D01*
X2713481Y-1304797D01*
X2718561Y-1299463D01*
X2728975Y-1294384D01*
X2749804Y-1294384D01*
X2760218Y-1299463D01*
X2765297Y-1304797D01*
X2770631Y-1315212D01*
X2770631Y-1325626D01*
X2765297Y-1336039D01*
X2754884Y-1351534D01*
X2703068Y-1403350D01*
X2775711Y-1403350D01*
X2046477Y-1332992D02*
G01*
X2041143Y-1322578D01*
X2030729Y-1312163D01*
X2020570Y-1307084D01*
X1999741Y-1307084D01*
X1989327Y-1312163D01*
X1978913Y-1322578D01*
X1973579Y-1332992D01*
X1968500Y-1348739D01*
X1968500Y-1374647D01*
X1973579Y-1390142D01*
X1978913Y-1400555D01*
X1989327Y-1410970D01*
X1999741Y-1416050D01*
X2020570Y-1416050D01*
X2030729Y-1410970D01*
X2041143Y-1400555D01*
X2046477Y-1390142D01*
X2091181Y-1307084D02*
G01*
X2148331Y-1307084D01*
X2117090Y-1348739D01*
X2132584Y-1348739D01*
X2142997Y-1353820D01*
X2148331Y-1358900D01*
X2153411Y-1374647D01*
X2153411Y-1385062D01*
X2148331Y-1400555D01*
X2137918Y-1410970D01*
X2122170Y-1416050D01*
X2106675Y-1416050D01*
X2091181Y-1410970D01*
X2085847Y-1405889D01*
X2080768Y-1395476D01*
X6859777Y-1345692D02*
G01*
X6854443Y-1335278D01*
X6844029Y-1324863D01*
X6833870Y-1319784D01*
X6813041Y-1319784D01*
X6802627Y-1324863D01*
X6792213Y-1335278D01*
X6786879Y-1345692D01*
X6781800Y-1361439D01*
X6781800Y-1387347D01*
X6786879Y-1402842D01*
X6792213Y-1413255D01*
X6802627Y-1423670D01*
X6813041Y-1428750D01*
X6833870Y-1428750D01*
X6844029Y-1423670D01*
X6854443Y-1413255D01*
X6859777Y-1402842D01*
X6945884Y-1319784D02*
G01*
X6894068Y-1392428D01*
X6972045Y-1392428D01*
X6945884Y-1319784D02*
G01*
X6945884Y-1428750D01*
X7494777Y-1371092D02*
G01*
X7489443Y-1360678D01*
X7479029Y-1350263D01*
X7468870Y-1345184D01*
X7448041Y-1345184D01*
X7437627Y-1350263D01*
X7427213Y-1360678D01*
X7421879Y-1371092D01*
X7416800Y-1386839D01*
X7416800Y-1412747D01*
X7421879Y-1428242D01*
X7427213Y-1438655D01*
X7437627Y-1449070D01*
X7448041Y-1454150D01*
X7468870Y-1454150D01*
X7479029Y-1449070D01*
X7489443Y-1438655D01*
X7494777Y-1428242D01*
X7591297Y-1345184D02*
G01*
X7539481Y-1345184D01*
X7534147Y-1391920D01*
X7539481Y-1386839D01*
X7554975Y-1381505D01*
X7570470Y-1381505D01*
X7586218Y-1386839D01*
X7596631Y-1397000D01*
X7601711Y-1412747D01*
X7601711Y-1423162D01*
X7596631Y-1438655D01*
X7586218Y-1449070D01*
X7570470Y-1454150D01*
X7554975Y-1454150D01*
X7539481Y-1449070D01*
X7534147Y-1443989D01*
X7529068Y-1433576D01*
X2541777Y-3415792D02*
G01*
X2536443Y-3405378D01*
X2526029Y-3394963D01*
X2515870Y-3389884D01*
X2495041Y-3389884D01*
X2484627Y-3394963D01*
X2474213Y-3405378D01*
X2468879Y-3415792D01*
X2463800Y-3431539D01*
X2463800Y-3457447D01*
X2468879Y-3472942D01*
X2474213Y-3483355D01*
X2484627Y-3493770D01*
X2495041Y-3498850D01*
X2515870Y-3498850D01*
X2526029Y-3493770D01*
X2536443Y-3483355D01*
X2541777Y-3472942D01*
X2638297Y-3405378D02*
G01*
X2633218Y-3394963D01*
X2617470Y-3389884D01*
X2607309Y-3389884D01*
X2591561Y-3394963D01*
X2581147Y-3410712D01*
X2576068Y-3436620D01*
X2576068Y-3462528D01*
X2581147Y-3483355D01*
X2591561Y-3493770D01*
X2607309Y-3498850D01*
X2612390Y-3498850D01*
X2627884Y-3493770D01*
X2638297Y-3483355D01*
X2643631Y-3467862D01*
X2643631Y-3462528D01*
X2638297Y-3447034D01*
X2627884Y-3436620D01*
X2612390Y-3431539D01*
X2607309Y-3431539D01*
X2591561Y-3436620D01*
X2581147Y-3447034D01*
X2576068Y-3462528D01*
X1586484Y-1714500D02*
G01*
X1695450Y-1714500D01*
X1586484Y-1714500D02*
G01*
X1586484Y-1678178D01*
X1591563Y-1662429D01*
X1601978Y-1652270D01*
X1612392Y-1646936D01*
X1628139Y-1641855D01*
X1654047Y-1641855D01*
X1669542Y-1646936D01*
X1679955Y-1652270D01*
X1690370Y-1662429D01*
X1695450Y-1678178D01*
X1695450Y-1714500D01*
X1607312Y-1607565D02*
G01*
X1601978Y-1597152D01*
X1586484Y-1581404D01*
X1695450Y-1581404D01*
X6425184Y-1689100D02*
G01*
X6534150Y-1689100D01*
X6425184Y-1689100D02*
G01*
X6425184Y-1652778D01*
X6430263Y-1637029D01*
X6440677Y-1626870D01*
X6451091Y-1621536D01*
X6466840Y-1616455D01*
X6492747Y-1616455D01*
X6508241Y-1621536D01*
X6518656Y-1626870D01*
X6529070Y-1637029D01*
X6534150Y-1652778D01*
X6534150Y-1689100D01*
X6451091Y-1576831D02*
G01*
X6446011Y-1576831D01*
X6435597Y-1571752D01*
X6430263Y-1566418D01*
X6425184Y-1556004D01*
X6425184Y-1535429D01*
X6430263Y-1525015D01*
X6435597Y-1519681D01*
X6446011Y-1514602D01*
X6456425Y-1514602D01*
X6466840Y-1519681D01*
X6482334Y-1530095D01*
X6534150Y-1582165D01*
X6534150Y-1509268D01*
X4546600Y-3631184D02*
G01*
X4546600Y-3740150D01*
X4619243Y-3631184D02*
G01*
X4619243Y-3740150D01*
X4546600Y-3683000D02*
G01*
X4619243Y-3683000D01*
X4653534Y-3652012D02*
G01*
X4663947Y-3646678D01*
X4679695Y-3631184D01*
X4679695Y-3740150D01*
X5218684Y-3695700D02*
G01*
X5327650Y-3695700D01*
X5218684Y-3623055D02*
G01*
X5327650Y-3623055D01*
X5270500Y-3695700D02*
G01*
X5270500Y-3623055D01*
X5244591Y-3583431D02*
G01*
X5239511Y-3583431D01*
X5229097Y-3578352D01*
X5223763Y-3573018D01*
X5218684Y-3562604D01*
X5218684Y-3542029D01*
X5223763Y-3531615D01*
X5229097Y-3526281D01*
X5239511Y-3521202D01*
X5249925Y-3521202D01*
X5260340Y-3526281D01*
X5275834Y-3536695D01*
X5327650Y-3588765D01*
X5327650Y-3515868D01*
X3466084Y-1447800D02*
G01*
X3575050Y-1447800D01*
X3466084Y-1447800D02*
G01*
X3466084Y-1401063D01*
X3471163Y-1385570D01*
X3476497Y-1380236D01*
X3486911Y-1375155D01*
X3497325Y-1375155D01*
X3507740Y-1380236D01*
X3512820Y-1385570D01*
X3517900Y-1401063D01*
X3517900Y-1447800D01*
X3517900Y-1411478D02*
G01*
X3575050Y-1375155D01*
X3486911Y-1340865D02*
G01*
X3481577Y-1330452D01*
X3466084Y-1314704D01*
X3575050Y-1314704D01*
X697484Y-1689100D02*
G01*
X806450Y-1689100D01*
X697484Y-1689100D02*
G01*
X697484Y-1642363D01*
X702563Y-1626870D01*
X707897Y-1621536D01*
X718312Y-1616455D01*
X728726Y-1616455D01*
X739139Y-1621536D01*
X744220Y-1626870D01*
X749300Y-1642363D01*
X749300Y-1689100D01*
X749300Y-1652778D02*
G01*
X806450Y-1616455D01*
X723392Y-1576831D02*
G01*
X718312Y-1576831D01*
X707897Y-1571752D01*
X702563Y-1566418D01*
X697484Y-1556004D01*
X697484Y-1535429D01*
X702563Y-1525015D01*
X707897Y-1519681D01*
X718312Y-1514602D01*
X728726Y-1514602D01*
X739139Y-1519681D01*
X754634Y-1530095D01*
X806450Y-1582165D01*
X806450Y-1509268D01*
X1371600Y-481584D02*
G01*
X1371600Y-590550D01*
X1371600Y-481584D02*
G01*
X1418336Y-481584D01*
X1433829Y-486663D01*
X1439163Y-491997D01*
X1444244Y-502412D01*
X1444244Y-512826D01*
X1439163Y-523239D01*
X1433829Y-528320D01*
X1418336Y-533400D01*
X1371600Y-533400D01*
X1407921Y-533400D02*
G01*
X1444244Y-590550D01*
X1530604Y-481584D02*
G01*
X1478534Y-554228D01*
X1556512Y-554228D01*
X1530604Y-481584D02*
G01*
X1530604Y-590550D01*
X3073400Y-494284D02*
G01*
X3073400Y-603250D01*
X3073400Y-494284D02*
G01*
X3120136Y-494284D01*
X3135629Y-499363D01*
X3140963Y-504697D01*
X3146043Y-515112D01*
X3146043Y-525526D01*
X3140963Y-535939D01*
X3135629Y-541020D01*
X3120136Y-546100D01*
X3073400Y-546100D01*
X3109722Y-546100D02*
G01*
X3146043Y-603250D01*
X3242818Y-494284D02*
G01*
X3190747Y-494284D01*
X3185668Y-541020D01*
X3190747Y-535939D01*
X3206495Y-530605D01*
X3221990Y-530605D01*
X3237484Y-535939D01*
X3247897Y-546100D01*
X3253231Y-561847D01*
X3253231Y-572262D01*
X3247897Y-587755D01*
X3237484Y-598170D01*
X3221990Y-603250D01*
X3206495Y-603250D01*
X3190747Y-598170D01*
X3185668Y-593089D01*
X3180334Y-582676D01*
X7810500Y-494284D02*
G01*
X7810500Y-603250D01*
X7810500Y-494284D02*
G01*
X7857236Y-494284D01*
X7872729Y-499363D01*
X7878063Y-504697D01*
X7883143Y-515112D01*
X7883143Y-525526D01*
X7878063Y-535939D01*
X7872729Y-541020D01*
X7857236Y-546100D01*
X7810500Y-546100D01*
X7846822Y-546100D02*
G01*
X7883143Y-603250D01*
X7979918Y-509778D02*
G01*
X7974584Y-499363D01*
X7959090Y-494284D01*
X7948675Y-494284D01*
X7933181Y-499363D01*
X7922768Y-515112D01*
X7917434Y-541020D01*
X7917434Y-566928D01*
X7922768Y-587755D01*
X7933181Y-598170D01*
X7948675Y-603250D01*
X7954009Y-603250D01*
X7969504Y-598170D01*
X7979918Y-587755D01*
X7984997Y-572262D01*
X7984997Y-566928D01*
X7979918Y-551434D01*
X7969504Y-541020D01*
X7954009Y-535939D01*
X7948675Y-535939D01*
X7933181Y-541020D01*
X7922768Y-551434D01*
X7917434Y-566928D01*
X6146800Y-887984D02*
G01*
X6146800Y-996950D01*
X6146800Y-887984D02*
G01*
X6193536Y-887984D01*
X6209029Y-893063D01*
X6214363Y-898397D01*
X6219443Y-908812D01*
X6219443Y-919226D01*
X6214363Y-929639D01*
X6209029Y-934720D01*
X6193536Y-939800D01*
X6146800Y-939800D01*
X6183122Y-939800D02*
G01*
X6219443Y-996950D01*
X6326631Y-887984D02*
G01*
X6274561Y-996950D01*
X6253734Y-887984D02*
G01*
X6326631Y-887984D01*
X5612384Y-1587500D02*
G01*
X5721350Y-1587500D01*
X5612384Y-1587500D02*
G01*
X5612384Y-1540763D01*
X5617463Y-1525270D01*
X5622797Y-1519936D01*
X5633211Y-1514855D01*
X5643625Y-1514855D01*
X5654040Y-1519936D01*
X5659120Y-1525270D01*
X5664200Y-1540763D01*
X5664200Y-1587500D01*
X5664200Y-1551178D02*
G01*
X5721350Y-1514855D01*
X5648706Y-1413002D02*
G01*
X5664200Y-1418081D01*
X5674613Y-1428495D01*
X5679947Y-1443989D01*
X5679947Y-1449323D01*
X5674613Y-1464818D01*
X5664200Y-1475231D01*
X5648706Y-1480565D01*
X5643625Y-1480565D01*
X5627877Y-1475231D01*
X5617463Y-1464818D01*
X5612384Y-1449323D01*
X5612384Y-1443989D01*
X5617463Y-1428495D01*
X5627877Y-1418081D01*
X5648706Y-1413002D01*
X5674613Y-1413002D01*
X5700775Y-1418081D01*
X5716270Y-1428495D01*
X5721350Y-1443989D01*
X5721350Y-1454404D01*
X5716270Y-1470152D01*
X5705856Y-1475231D01*
X8177784Y-1663700D02*
G01*
X8286750Y-1663700D01*
X8177784Y-1663700D02*
G01*
X8177784Y-1616963D01*
X8182863Y-1601470D01*
X8188197Y-1596136D01*
X8198611Y-1591055D01*
X8209025Y-1591055D01*
X8219440Y-1596136D01*
X8224520Y-1601470D01*
X8229600Y-1616963D01*
X8229600Y-1663700D01*
X8229600Y-1627378D02*
G01*
X8286750Y-1591055D01*
X8198611Y-1556765D02*
G01*
X8193277Y-1546352D01*
X8177784Y-1530604D01*
X8286750Y-1530604D01*
X8177784Y-1465326D02*
G01*
X8182863Y-1480820D01*
X8198611Y-1491234D01*
X8224520Y-1496313D01*
X8240013Y-1496313D01*
X8266175Y-1491234D01*
X8281670Y-1480820D01*
X8286750Y-1465326D01*
X8286750Y-1454912D01*
X8281670Y-1439163D01*
X8266175Y-1428750D01*
X8240013Y-1423670D01*
X8224520Y-1423670D01*
X8198611Y-1428750D01*
X8182863Y-1439163D01*
X8177784Y-1454912D01*
X8177784Y-1465326D01*
X2857500Y-2691384D02*
G01*
X2857500Y-2769362D01*
X2862579Y-2784855D01*
X2872993Y-2795270D01*
X2888741Y-2800350D01*
X2899156Y-2800350D01*
X2914650Y-2795270D01*
X2925063Y-2784855D01*
X2930143Y-2769362D01*
X2930143Y-2691384D01*
X2964434Y-2712212D02*
G01*
X2974847Y-2706878D01*
X2990595Y-2691384D01*
X2990595Y-2800350D01*
X7785100Y-2678684D02*
G01*
X7785100Y-2756662D01*
X7790179Y-2772155D01*
X7800593Y-2782570D01*
X7816341Y-2787650D01*
X7826756Y-2787650D01*
X7842250Y-2782570D01*
X7852663Y-2772155D01*
X7857743Y-2756662D01*
X7857743Y-2678684D01*
X7897368Y-2704592D02*
G01*
X7897368Y-2699512D01*
X7902447Y-2689097D01*
X7907781Y-2683763D01*
X7918195Y-2678684D01*
X7938770Y-2678684D01*
X7949184Y-2683763D01*
X7954518Y-2689097D01*
X7959597Y-2699512D01*
X7959597Y-2709926D01*
X7954518Y-2720339D01*
X7944104Y-2735834D01*
X7892034Y-2787650D01*
X7964931Y-2787650D01*
X3904741Y674115D02*
G01*
X3894327Y669036D01*
X3883913Y658621D01*
X3878579Y648207D01*
X3873500Y632460D01*
X3873500Y606552D01*
X3878579Y591057D01*
X3883913Y580644D01*
X3894327Y570229D01*
X3904741Y565150D01*
X3925570Y565150D01*
X3935729Y570229D01*
X3946143Y580644D01*
X3951477Y591057D01*
X3956558Y606552D01*
X3956558Y632460D01*
X3951477Y648207D01*
X3946143Y658621D01*
X3935729Y669036D01*
X3925570Y674115D01*
X3904741Y674115D01*
X3920236Y585723D02*
G01*
X3951477Y554736D01*
X4001261Y674115D02*
G01*
X4058411Y674115D01*
X4027170Y632460D01*
X4042918Y632460D01*
X4053331Y627379D01*
X4058411Y622300D01*
X4063745Y606552D01*
X4063745Y596137D01*
X4058411Y580644D01*
X4047997Y570229D01*
X4032504Y565150D01*
X4017009Y565150D01*
X4001261Y570229D01*
X3996181Y575310D01*
X3990847Y585723D01*
D11*
X3289300Y-201421D02*
G01*
X3289300Y-395223D01*
X3289300Y-201421D02*
G01*
X3354070Y-201421D01*
X3381756Y-210565D01*
X3400043Y-229107D01*
X3409441Y-247650D01*
X3418586Y-275336D01*
X3418586Y-321310D01*
X3409441Y-349250D01*
X3400043Y-367537D01*
X3381756Y-386079D01*
X3354070Y-395223D01*
X3289300Y-395223D01*
X3926586Y-229107D02*
G01*
X3908043Y-210565D01*
X3880358Y-201421D01*
X3843527Y-201421D01*
X3815841Y-210565D01*
X3797300Y-229107D01*
X3797300Y-247650D01*
X3806443Y-265937D01*
X3815841Y-275336D01*
X3834129Y-284479D01*
X3889756Y-303021D01*
X3908043Y-312165D01*
X3917441Y-321310D01*
X3926586Y-339852D01*
X3926586Y-367537D01*
X3908043Y-386079D01*
X3880358Y-395223D01*
X3843527Y-395223D01*
X3815841Y-386079D01*
X3797300Y-367537D01*
X4180586Y-229107D02*
G01*
X4162043Y-210565D01*
X4134358Y-201421D01*
X4097527Y-201421D01*
X4069841Y-210565D01*
X4051300Y-229107D01*
X4051300Y-247650D01*
X4060443Y-265937D01*
X4069841Y-275336D01*
X4088129Y-284479D01*
X4143756Y-303021D01*
X4162043Y-312165D01*
X4171441Y-321310D01*
X4180586Y-339852D01*
X4180586Y-367537D01*
X4162043Y-386079D01*
X4134358Y-395223D01*
X4097527Y-395223D01*
X4069841Y-386079D01*
X4051300Y-367537D01*
X4443727Y-247655D02*
G01*
X4434583Y-229113D01*
X4416041Y-210571D01*
X4397753Y-201427D01*
X4360669Y-201427D01*
X4342127Y-210571D01*
X4323839Y-229113D01*
X4314441Y-247655D01*
X4305297Y-275341D01*
X4305297Y-321315D01*
X4314441Y-349255D01*
X4323839Y-367543D01*
X4342127Y-386085D01*
X4360669Y-395229D01*
X4397753Y-395229D01*
X4416041Y-386085D01*
X4434583Y-367543D01*
X4443727Y-349255D01*
X4443727Y-321315D01*
X4397753Y-321315D02*
G01*
X4443727Y-321315D01*
D10*
X8482584Y-876376D02*
G01*
X8591550Y-803732D01*
X8482584Y-803732D02*
G01*
X8591550Y-876376D01*
X8503411Y-769442D02*
G01*
X8498077Y-759028D01*
X8482584Y-743280D01*
X8591550Y-743280D01*
X9732772Y-1242136D02*
G01*
X9726929Y-1230706D01*
X9709658Y-1213180D01*
X9831070Y-1213180D01*
X9738613Y-616534D02*
G01*
X9732772Y-616534D01*
X9721341Y-610946D01*
X9715500Y-605104D01*
X9709658Y-593420D01*
X9709658Y-570306D01*
X9715500Y-558876D01*
X9721341Y-553034D01*
X9732772Y-547446D01*
X9744456Y-547446D01*
X9755886Y-553034D01*
X9773158Y-564718D01*
X9831070Y-622376D01*
X9831070Y-541604D01*
X8469884Y-2438476D02*
G01*
X8578850Y-2365832D01*
X8469884Y-2365832D02*
G01*
X8578850Y-2438476D01*
X8495791Y-2326208D02*
G01*
X8490711Y-2326208D01*
X8480297Y-2321128D01*
X8474963Y-2315794D01*
X8469884Y-2305380D01*
X8469884Y-2284806D01*
X8474963Y-2274392D01*
X8480297Y-2269058D01*
X8490711Y-2263978D01*
X8501125Y-2263978D01*
X8511540Y-2269058D01*
X8527034Y-2279472D01*
X8578850Y-2331542D01*
X8578850Y-2258644D01*
X9720072Y-2804236D02*
G01*
X9714229Y-2792806D01*
X9696958Y-2775280D01*
X9818370Y-2775280D01*
X9725913Y-2178634D02*
G01*
X9720072Y-2178634D01*
X9708641Y-2173046D01*
X9702800Y-2167204D01*
X9696958Y-2155520D01*
X9696958Y-2132406D01*
X9702800Y-2120976D01*
X9708641Y-2115134D01*
X9720072Y-2109546D01*
X9731756Y-2109546D01*
X9743186Y-2115134D01*
X9760458Y-2126818D01*
X9818370Y-2184476D01*
X9818370Y-2103704D01*
X4775123Y-468884D02*
G01*
X4847767Y-577850D01*
X4847767Y-468884D02*
G01*
X4775123Y-577850D01*
X4892471Y-468884D02*
G01*
X4949621Y-468884D01*
X4918633Y-510539D01*
X4934127Y-510539D01*
X4944541Y-515620D01*
X4949621Y-520700D01*
X4954955Y-536447D01*
X4954955Y-546862D01*
X4949621Y-562355D01*
X4939207Y-572770D01*
X4923713Y-577850D01*
X4908219Y-577850D01*
X4892471Y-572770D01*
X4887391Y-567689D01*
X4882057Y-557276D01*
X4409363Y-1719071D02*
G01*
X4420793Y-1713229D01*
X4438319Y-1695957D01*
X4438319Y-1817370D01*
X5034965Y-1724913D02*
G01*
X5034965Y-1719071D01*
X5040553Y-1707642D01*
X5046395Y-1701800D01*
X5058079Y-1695957D01*
X5081193Y-1695957D01*
X5092623Y-1701800D01*
X5098465Y-1707642D01*
X5104053Y-1719071D01*
X5104053Y-1730755D01*
X5098465Y-1742186D01*
X5086781Y-1759457D01*
X5029123Y-1817370D01*
X5109895Y-1817370D01*
X2197100Y-875284D02*
G01*
X2197100Y-984250D01*
X2197100Y-875284D02*
G01*
X2243836Y-875284D01*
X2259329Y-880363D01*
X2264663Y-885697D01*
X2269743Y-896112D01*
X2269743Y-906526D01*
X2264663Y-916939D01*
X2259329Y-922020D01*
X2243836Y-927100D01*
X2197100Y-927100D01*
X2233422Y-927100D02*
G01*
X2269743Y-984250D01*
X2314447Y-875284D02*
G01*
X2371597Y-875284D01*
X2340609Y-916939D01*
X2356104Y-916939D01*
X2366518Y-922020D01*
X2371597Y-927100D01*
X2376931Y-942847D01*
X2376931Y-953262D01*
X2371597Y-968755D01*
X2361184Y-979170D01*
X2345690Y-984250D01*
X2330195Y-984250D01*
X2314447Y-979170D01*
X2309368Y-974089D01*
X2304034Y-963676D01*
X7061200Y-887984D02*
G01*
X7061200Y-996950D01*
X7061200Y-887984D02*
G01*
X7107936Y-887984D01*
X7123429Y-893063D01*
X7128763Y-898397D01*
X7133843Y-908812D01*
X7133843Y-919226D01*
X7128763Y-929639D01*
X7123429Y-934720D01*
X7107936Y-939800D01*
X7061200Y-939800D01*
X7097522Y-939800D02*
G01*
X7133843Y-996950D01*
X7194295Y-887984D02*
G01*
X7178547Y-893063D01*
X7173468Y-903478D01*
X7173468Y-913892D01*
X7178547Y-924305D01*
X7188961Y-929639D01*
X7209790Y-934720D01*
X7225284Y-939800D01*
X7235697Y-950213D01*
X7241031Y-960628D01*
X7241031Y-976376D01*
X7235697Y-986789D01*
X7230618Y-991870D01*
X7214870Y-996950D01*
X7194295Y-996950D01*
X7178547Y-991870D01*
X7173468Y-986789D01*
X7168134Y-976376D01*
X7168134Y-960628D01*
X7173468Y-950213D01*
X7183881Y-939800D01*
X7199375Y-934720D01*
X7220204Y-929639D01*
X7230618Y-924305D01*
X7235697Y-913892D01*
X7235697Y-903478D01*
X7230618Y-893063D01*
X7214870Y-887984D01*
X7194295Y-887984D01*
D11*
X1281198Y501599D02*
G01*
X1171199Y371599D01*
X1171199Y-168399D02*
G01*
X1171199Y371589D01*
X2791198Y501599D02*
G01*
X2791198Y371599D01*
X1981200Y-168399D02*
G01*
X1171199Y-168399D01*
X2791198Y501599D02*
G01*
X2681198Y371599D01*
X2681203Y501596D02*
G01*
X2571203Y371596D01*
X2581201Y501599D02*
G01*
X2471201Y371599D01*
X2481201Y501599D02*
G01*
X2371201Y371599D01*
X2381199Y501599D02*
G01*
X2271199Y371599D01*
X2281199Y501599D02*
G01*
X2171199Y371599D01*
X2181199Y501599D02*
G01*
X2071199Y371599D01*
X2081199Y501599D02*
G01*
X1971200Y371599D01*
X1981200Y501599D02*
G01*
X1871200Y371599D01*
X1781197Y501601D02*
G01*
X1671198Y371602D01*
X1881197Y501599D02*
G01*
X1771197Y371599D01*
X1681200Y501599D02*
G01*
X1571200Y371599D01*
X1581200Y501596D02*
G01*
X1471201Y371596D01*
X1481203Y501601D02*
G01*
X1371203Y371602D01*
X1381198Y501601D02*
G01*
X1271198Y371602D01*
X1171199Y501599D02*
G01*
X1171199Y371599D01*
X1171201Y501599D02*
G01*
X1981202Y501599D01*
X1981200Y501599D02*
G01*
X2791200Y501599D01*
X1981200Y371599D02*
G01*
X1171199Y371599D01*
X1981200Y371599D02*
G01*
X2791200Y371599D01*
X1981200Y-168399D02*
G01*
X2791200Y-168399D01*
X2791200Y371599D02*
G01*
X2791200Y-168389D01*
X5065798Y501599D02*
G01*
X4955799Y371599D01*
X4955799Y-168399D02*
G01*
X4955799Y371589D01*
X6575798Y501599D02*
G01*
X6575798Y371599D01*
X5765800Y-168399D02*
G01*
X4955799Y-168399D01*
X6575798Y501599D02*
G01*
X6465798Y371599D01*
X6465803Y501596D02*
G01*
X6355803Y371596D01*
X6365801Y501599D02*
G01*
X6255801Y371599D01*
X6265801Y501599D02*
G01*
X6155801Y371599D01*
X6165799Y501599D02*
G01*
X6055799Y371599D01*
X6065799Y501599D02*
G01*
X5955799Y371599D01*
X5965799Y501599D02*
G01*
X5855799Y371599D01*
X5865799Y501599D02*
G01*
X5755800Y371599D01*
X5765800Y501599D02*
G01*
X5655800Y371599D01*
X5565797Y501601D02*
G01*
X5455798Y371602D01*
X5665797Y501599D02*
G01*
X5555797Y371599D01*
X5465800Y501599D02*
G01*
X5355800Y371599D01*
X5365800Y501596D02*
G01*
X5255801Y371596D01*
X5265803Y501601D02*
G01*
X5155803Y371602D01*
X5165798Y501601D02*
G01*
X5055798Y371602D01*
X4955799Y501599D02*
G01*
X4955799Y371599D01*
X4955801Y501599D02*
G01*
X5765802Y501599D01*
X5765800Y501599D02*
G01*
X6575800Y501599D01*
X5765800Y371599D02*
G01*
X4955799Y371599D01*
X5765800Y371599D02*
G01*
X6575800Y371599D01*
X5765800Y-168399D02*
G01*
X6575800Y-168399D01*
X6575800Y371599D02*
G01*
X6575800Y-168389D01*
X6945398Y501599D02*
G01*
X6835399Y371599D01*
X6835399Y-168399D02*
G01*
X6835399Y371589D01*
X8455398Y501599D02*
G01*
X8455398Y371599D01*
X7645400Y-168399D02*
G01*
X6835399Y-168399D01*
X8455398Y501599D02*
G01*
X8345398Y371599D01*
X8345403Y501596D02*
G01*
X8235403Y371596D01*
X8245401Y501599D02*
G01*
X8135401Y371599D01*
X8145401Y501599D02*
G01*
X8035401Y371599D01*
X8045399Y501599D02*
G01*
X7935399Y371599D01*
X7945399Y501599D02*
G01*
X7835399Y371599D01*
X7845399Y501599D02*
G01*
X7735399Y371599D01*
X7745399Y501599D02*
G01*
X7635400Y371599D01*
X7645400Y501599D02*
G01*
X7535400Y371599D01*
X7445397Y501601D02*
G01*
X7335398Y371602D01*
X7545397Y501599D02*
G01*
X7435397Y371599D01*
X7345400Y501599D02*
G01*
X7235400Y371599D01*
X7245400Y501596D02*
G01*
X7135401Y371596D01*
X7145403Y501601D02*
G01*
X7035403Y371602D01*
X7045398Y501601D02*
G01*
X6935398Y371602D01*
X6835399Y501599D02*
G01*
X6835399Y371599D01*
X6835401Y501599D02*
G01*
X7645402Y501599D01*
X7645400Y501599D02*
G01*
X8455400Y501599D01*
X7645400Y371599D02*
G01*
X6835399Y371599D01*
X7645400Y371599D02*
G01*
X8455400Y371599D01*
X7645400Y-168399D02*
G01*
X8455400Y-168399D01*
X8455400Y371599D02*
G01*
X8455400Y-168389D01*
D10*
X7734119Y-3154639D02*
G01*
X7585621Y-3154639D01*
X7585621Y-3373160D02*
G01*
X7734119Y-3373160D01*
X7749359Y-3357920D02*
G01*
X7749359Y-3169879D01*
X7251880Y-3154639D02*
G01*
X7400378Y-3154639D01*
X7400378Y-3373160D02*
G01*
X7251880Y-3373160D01*
X7236640Y-3357920D02*
G01*
X7236640Y-3169879D01*
X2425880Y-1684060D02*
G01*
X2574378Y-1684060D01*
X2574378Y-1465539D02*
G01*
X2425880Y-1465539D01*
X2410640Y-1480779D02*
G01*
X2410640Y-1668820D01*
X2908119Y-1684060D02*
G01*
X2759621Y-1684060D01*
X2759621Y-1465539D02*
G01*
X2908119Y-1465539D01*
X2923359Y-1480779D02*
G01*
X2923359Y-1668820D01*
X2311219Y-1465539D02*
G01*
X2162721Y-1465539D01*
X2162721Y-1684060D02*
G01*
X2311219Y-1684060D01*
X2326459Y-1668820D02*
G01*
X2326459Y-1480779D01*
X1828980Y-1465539D02*
G01*
X1977478Y-1465539D01*
X1977478Y-1684060D02*
G01*
X1828980Y-1684060D01*
X1813740Y-1668820D02*
G01*
X1813740Y-1480779D01*
X7111819Y-1478239D02*
G01*
X6963321Y-1478239D01*
X6963321Y-1696760D02*
G01*
X7111819Y-1696760D01*
X7127059Y-1681520D02*
G01*
X7127059Y-1493479D01*
X6629580Y-1478239D02*
G01*
X6778078Y-1478239D01*
X6778078Y-1696760D02*
G01*
X6629580Y-1696760D01*
X6614340Y-1681520D02*
G01*
X6614340Y-1493479D01*
X7264580Y-1696760D02*
G01*
X7413078Y-1696760D01*
X7413078Y-1478239D02*
G01*
X7264580Y-1478239D01*
X7249340Y-1493479D02*
G01*
X7249340Y-1681520D01*
X7746819Y-1696760D02*
G01*
X7598321Y-1696760D01*
X7598321Y-1478239D02*
G01*
X7746819Y-1478239D01*
X7762059Y-1493479D02*
G01*
X7762059Y-1681520D01*
X2311580Y-3360460D02*
G01*
X2460078Y-3360460D01*
X2460078Y-3141939D02*
G01*
X2311580Y-3141939D01*
X2296340Y-3157179D02*
G01*
X2296340Y-3345220D01*
X2793819Y-3360460D02*
G01*
X2645321Y-3360460D01*
X2645321Y-3141939D02*
G01*
X2793819Y-3141939D01*
X2809059Y-3157179D02*
G01*
X2809059Y-3345220D01*
D12*
X1244300Y-1802373D02*
G01*
X1524299Y-1802373D01*
X1244300Y-1898299D02*
G01*
X1524299Y-1898299D01*
X1524299Y-1898299D02*
G01*
X1524299Y-1378300D01*
X1244300Y-1378300D02*
G01*
X1524299Y-1378300D01*
X1244300Y-1898299D02*
G01*
X1244300Y-1378300D01*
X6108400Y-1764273D02*
G01*
X6388399Y-1764273D01*
X6108400Y-1860199D02*
G01*
X6388399Y-1860199D01*
X6388399Y-1860199D02*
G01*
X6388399Y-1340200D01*
X6108400Y-1340200D02*
G01*
X6388399Y-1340200D01*
X6108400Y-1860199D02*
G01*
X6108400Y-1340200D01*
X4320352Y-3771900D02*
G01*
X5080000Y-3771900D01*
X5080000Y-4025900D01*
X4064000Y-4025900D01*
X4064000Y-3771900D01*
X4320352Y-3771900D01*
X4320352Y-3771900D02*
G01*
X4320352Y-4025900D01*
D11*
X5359400Y-3860800D02*
G01*
X5359400Y-4051300D01*
X5613400Y-4051300D01*
X5613400Y-3289300D01*
X5359400Y-3289300D01*
D13*
X5359400Y-3289300D02*
G01*
X5359400Y-3860800D01*
D10*
X3397209Y-1289179D02*
G01*
X3397209Y-1153187D01*
X3181390Y-1153187D01*
X3181390Y-1289179D01*
X3397209Y-1479420D02*
G01*
X3397209Y-1615412D01*
X3181390Y-1615412D01*
X3181390Y-1479420D01*
X1073109Y-1530479D02*
G01*
X1073109Y-1394487D01*
X857290Y-1394487D01*
X857290Y-1530479D01*
X1073109Y-1720720D02*
G01*
X1073109Y-1856712D01*
X857290Y-1856712D01*
X857290Y-1720720D01*
X1352679Y-615990D02*
G01*
X1216687Y-615990D01*
X1216687Y-831809D01*
X1352679Y-831809D01*
X1542920Y-615990D02*
G01*
X1678912Y-615990D01*
X1678912Y-831809D01*
X1542920Y-831809D01*
X3232020Y-869909D02*
G01*
X3368012Y-869909D01*
X3368012Y-654090D01*
X3232020Y-654090D01*
X3041779Y-869909D02*
G01*
X2905787Y-869909D01*
X2905787Y-654090D01*
X3041779Y-654090D01*
X7969120Y-869909D02*
G01*
X8105112Y-869909D01*
X8105112Y-654090D01*
X7969120Y-654090D01*
X7778879Y-869909D02*
G01*
X7642887Y-869909D01*
X7642887Y-654090D01*
X7778879Y-654090D01*
X6127879Y-641390D02*
G01*
X5991887Y-641390D01*
X5991887Y-857209D01*
X6127879Y-857209D01*
X6318120Y-641390D02*
G01*
X6454112Y-641390D01*
X6454112Y-857209D01*
X6318120Y-857209D01*
X5988009Y-1492379D02*
G01*
X5988009Y-1356387D01*
X5772190Y-1356387D01*
X5772190Y-1492379D01*
X5988009Y-1682620D02*
G01*
X5988009Y-1818612D01*
X5772190Y-1818612D01*
X5772190Y-1682620D01*
X8134309Y-1479679D02*
G01*
X8134309Y-1343687D01*
X7918490Y-1343687D01*
X7918490Y-1479679D01*
X8134309Y-1669920D02*
G01*
X8134309Y-1805912D01*
X7918490Y-1805912D01*
X7918490Y-1669920D01*
D12*
X1780539Y-2890520D02*
G01*
X2770886Y-2890520D01*
X2770886Y-2522220D01*
X1775713Y-2522220D01*
X1775713Y-2522220D02*
G01*
X1775713Y-2646667D01*
X1778000Y-2763520D02*
G01*
X1778000Y-2890520D01*
X6720840Y-2877820D02*
G01*
X7711186Y-2877820D01*
X7711186Y-2509520D01*
X6716013Y-2509520D01*
X6716013Y-2509520D02*
G01*
X6716013Y-2633967D01*
X6718300Y-2750820D02*
G01*
X6718300Y-2877820D01*
D11*
X3173498Y501599D02*
G01*
X3063499Y371599D01*
X3063499Y-168399D02*
G01*
X3063499Y371589D01*
X4683498Y501599D02*
G01*
X4683498Y371599D01*
X3873500Y-168399D02*
G01*
X3063499Y-168399D01*
X4683498Y501599D02*
G01*
X4573498Y371599D01*
X4573503Y501596D02*
G01*
X4463503Y371596D01*
X4473501Y501599D02*
G01*
X4363501Y371599D01*
X4373501Y501599D02*
G01*
X4263501Y371599D01*
X4273499Y501599D02*
G01*
X4163499Y371599D01*
X4173499Y501599D02*
G01*
X4063499Y371599D01*
X4073499Y501599D02*
G01*
X3963499Y371599D01*
X3973499Y501599D02*
G01*
X3863500Y371599D01*
X3873500Y501599D02*
G01*
X3763500Y371599D01*
X3673497Y501601D02*
G01*
X3563498Y371602D01*
X3773497Y501599D02*
G01*
X3663497Y371599D01*
X3573500Y501599D02*
G01*
X3463500Y371599D01*
X3473500Y501596D02*
G01*
X3363501Y371596D01*
X3373503Y501601D02*
G01*
X3263503Y371602D01*
X3273498Y501601D02*
G01*
X3163498Y371602D01*
X3063499Y501599D02*
G01*
X3063499Y371599D01*
X3063501Y501599D02*
G01*
X3873502Y501599D01*
X3873500Y501599D02*
G01*
X4683500Y501599D01*
X3873500Y371599D02*
G01*
X3063499Y371599D01*
X3873500Y371599D02*
G01*
X4683500Y371599D01*
X3873500Y-168399D02*
G01*
X4683500Y-168399D01*
X4683500Y371599D02*
G01*
X4683500Y-168389D01*
D12*
X9768840Y-1366596D02*
G01*
X9621520Y-1300556D01*
X9621520Y-1300556D02*
G01*
X9621520Y-1432636D01*
X9621520Y-1432636D02*
G01*
X9768840Y-1366596D01*
X8831579Y-1511376D02*
G01*
X8831579Y-241376D01*
X9479279Y-1511376D02*
G01*
X9479279Y-241376D01*
X8630920Y-1511376D02*
G01*
X8630920Y-241376D01*
X8630920Y-241376D02*
G01*
X9880600Y-241376D01*
X9880600Y-241376D02*
G01*
X9880600Y-1511376D01*
X9880600Y-1511376D02*
G01*
X8630920Y-1511376D01*
X9260840Y-665556D02*
G01*
X9060179Y-464896D01*
X9260840Y-1290396D02*
G01*
X9060179Y-1089736D01*
X9756140Y-2928696D02*
G01*
X9608820Y-2862656D01*
X9608820Y-2862656D02*
G01*
X9608820Y-2994736D01*
X9608820Y-2994736D02*
G01*
X9756140Y-2928696D01*
X8818879Y-3073476D02*
G01*
X8818879Y-1803476D01*
X9466579Y-3073476D02*
G01*
X9466579Y-1803476D01*
X8618220Y-3073476D02*
G01*
X8618220Y-1803476D01*
X8618220Y-1803476D02*
G01*
X9867900Y-1803476D01*
X9867900Y-1803476D02*
G01*
X9867900Y-3073476D01*
X9867900Y-3073476D02*
G01*
X8618220Y-3073476D01*
X9248140Y-2227656D02*
G01*
X9047479Y-2026996D01*
X9248140Y-2852496D02*
G01*
X9047479Y-2651836D01*
X4284903Y-1755139D02*
G01*
X4350943Y-1607820D01*
X4350943Y-1607820D02*
G01*
X4218863Y-1607820D01*
X4218863Y-1607820D02*
G01*
X4284903Y-1755139D01*
X4140123Y-817879D02*
G01*
X5410123Y-817879D01*
X4140123Y-1465579D02*
G01*
X5410123Y-1465579D01*
X4140123Y-617220D02*
G01*
X5410123Y-617220D01*
X5410123Y-617220D02*
G01*
X5410123Y-1866900D01*
X5410123Y-1866900D02*
G01*
X4140123Y-1866900D01*
X4140123Y-1866900D02*
G01*
X4140123Y-617220D01*
X4985943Y-1247139D02*
G01*
X5186603Y-1046479D01*
X4361103Y-1247139D02*
G01*
X4561763Y-1046479D01*
D10*
X2393820Y-1250909D02*
G01*
X2529812Y-1250909D01*
X2529812Y-1035090D01*
X2393820Y-1035090D01*
X2203579Y-1250909D02*
G01*
X2067587Y-1250909D01*
X2067587Y-1035090D01*
X2203579Y-1035090D01*
X7245220Y-1263609D02*
G01*
X7381212Y-1263609D01*
X7381212Y-1047790D01*
X7245220Y-1047790D01*
X7054979Y-1263609D02*
G01*
X6918987Y-1263609D01*
X6918987Y-1047790D01*
X7054979Y-1047790D01*
G75*
G01*
X7734120Y-3373161D02*
G03*
X7749360Y-3357921I0J15240D01*
G75*
G01*
X7749360Y-3169879D02*
G03*
X7734120Y-3154639I-15240J0D01*
G75*
G01*
X7251880Y-3373161D02*
G02*
X7236640Y-3357921I0J15240D01*
G75*
G01*
X7236640Y-3169879D02*
G02*
X7251880Y-3154639I15240J0D01*
G75*
G01*
X2425880Y-1465539D02*
G03*
X2410640Y-1480779I0J-15240D01*
G75*
G01*
X2410640Y-1668821D02*
G03*
X2425880Y-1684061I15240J0D01*
G75*
G01*
X2908120Y-1465539D02*
G02*
X2923360Y-1480779I0J-15240D01*
G75*
G01*
X2923360Y-1668821D02*
G02*
X2908120Y-1684061I-15240J0D01*
G75*
G01*
X2311220Y-1684061D02*
G03*
X2326460Y-1668821I0J15240D01*
G75*
G01*
X2326460Y-1480779D02*
G03*
X2311220Y-1465539I-15240J0D01*
G75*
G01*
X1828980Y-1684061D02*
G02*
X1813740Y-1668821I0J15240D01*
G75*
G01*
X1813740Y-1480779D02*
G02*
X1828980Y-1465539I15240J0D01*
G75*
G01*
X7111820Y-1696761D02*
G03*
X7127060Y-1681521I0J15240D01*
G75*
G01*
X7127060Y-1493479D02*
G03*
X7111820Y-1478239I-15240J0D01*
G75*
G01*
X6629580Y-1696761D02*
G02*
X6614340Y-1681521I0J15240D01*
G75*
G01*
X6614340Y-1493479D02*
G02*
X6629580Y-1478239I15240J0D01*
G75*
G01*
X7264580Y-1478239D02*
G03*
X7249340Y-1493479I0J-15240D01*
G75*
G01*
X7249340Y-1681521D02*
G03*
X7264580Y-1696761I15240J0D01*
G75*
G01*
X7746820Y-1478239D02*
G02*
X7762060Y-1493479I0J-15240D01*
G75*
G01*
X7762060Y-1681521D02*
G02*
X7746820Y-1696761I-15240J0D01*
G75*
G01*
X2311580Y-3141939D02*
G03*
X2296340Y-3157179I0J-15240D01*
G75*
G01*
X2296340Y-3345221D02*
G03*
X2311580Y-3360461I15240J0D01*
G75*
G01*
X2793820Y-3141939D02*
G02*
X2809060Y-3157179I0J-15240D01*
G75*
G01*
X2809060Y-3345221D02*
G02*
X2793820Y-3360461I-15240J0D01*
D12*
G75*
G01*
X1778000Y-2763520D02*
G03*
X1778292Y-2646667I2548J58420D01*
G75*
G01*
X6718300Y-2750820D02*
G03*
X6718592Y-2633967I2548J58420D01*
D11*
G75*
G01
X1302004Y-88392D02*
G03X1302004Y-88392I-50800J0D01*
G75*
G01
X5086604Y-88392D02*
G03X5086604Y-88392I-50800J0D01*
G75*
G01
X6966204Y-88392D02*
G03X6966204Y-88392I-50800J0D01*
G75*
G01
X3194304Y-88392D02*
G03X3194304Y-88392I-50800J0D01*
D12*
G75*
G01
X9405620Y-558876D02*
G03X9405620Y-558876I-248920J0D01*
G75*
G01
X9405620Y-1193876D02*
G03X9405620Y-1193876I-248920J0D01*
G75*
G01
X9392920Y-2120976D02*
G03X9392920Y-2120976I-248920J0D01*
G75*
G01
X9392920Y-2755976D02*
G03X9392920Y-2755976I-248920J0D01*
G75*
G01
X5341544Y-1143000D02*
G03X5341544Y-1143000I-248920J0D01*
G75*
G01
X4706544Y-1143000D02*
G03X4706544Y-1143000I-248920J0D01*
M02*
